<svg width="13" height="18" viewBox="0 0 13 18" fill="none" xmlns="http://www.w3.org/2000/svg">
<path d="M6.32812 0C2.8388 0 0 2.8388 0 6.32812C0 7.50705 0.326567 8.65758 0.944613 9.65574L5.96791 17.7507C6.06414 17.9058 6.23366 18 6.41598 18C6.41739 18 6.41876 18 6.42016 18C6.60407 17.9986 6.77394 17.9014 6.86841 17.7436L11.7637 9.57023C12.3476 8.59317 12.6562 7.47207 12.6562 6.32812C12.6562 2.8388 9.81745 0 6.32812 0ZM10.8586 9.02876L6.408 16.4597L1.84103 9.10005C1.32659 8.26924 1.04766 7.31074 1.04766 6.32812C1.04766 3.42035 3.42035 1.04766 6.32812 1.04766C9.2359 1.04766 11.6051 3.42035 11.6051 6.32812C11.6051 7.2816 11.3445 8.21559 10.8586 9.02876Z" fill="white"/>
<path d="M6.32812 3.16406C4.58346 3.16406 3.16406 4.58346 3.16406 6.32812C3.16406 8.06164 4.56036 9.49219 6.32812 9.49219C8.11768 9.49219 9.49219 8.04259 9.49219 6.32812C9.49219 4.58346 8.07279 3.16406 6.32812 3.16406ZM6.32812 8.44453C5.15893 8.44453 4.21172 7.49415 4.21172 6.32812C4.21172 5.16502 5.16502 4.21172 6.32812 4.21172C7.49123 4.21172 8.44102 5.16502 8.44102 6.32812C8.44102 7.47714 7.51584 8.44453 6.32812 8.44453Z" fill="white"/>
</svg>
