<svg width="18" height="18" viewBox="0 0 18 18" fill="none" xmlns="http://www.w3.org/2000/svg">
<path d="M14.2334 11.1503C13.8643 10.7666 13.4192 10.5614 12.9474 10.5614C12.4795 10.5614 12.0305 10.7628 11.6463 11.1465L10.444 12.3432C10.3451 12.29 10.2462 12.2406 10.1511 12.1912C10.0141 12.1229 9.88474 12.0583 9.77441 11.9899C8.64825 11.2757 7.62482 10.3449 6.64324 9.1406C6.16767 8.54035 5.84808 8.03507 5.616 7.5222C5.92798 7.23727 6.21712 6.94095 6.49866 6.65602C6.60519 6.54964 6.71172 6.43947 6.81825 6.3331C7.61721 5.5353 7.61721 4.50195 6.81825 3.70415L5.7796 2.66701C5.66166 2.54924 5.53991 2.42767 5.42577 2.3061C5.1975 2.07056 4.95781 1.82742 4.71051 1.59948C4.34147 1.23477 3.90013 1.04102 3.43597 1.04102C2.97182 1.04102 2.52288 1.23477 2.14242 1.59948C2.13861 1.60328 2.13861 1.60328 2.13481 1.60707L0.84125 2.91015C0.354263 3.39643 0.0765286 3.98908 0.0156553 4.67671C-0.0756547 5.78603 0.251539 6.81938 0.502642 7.49561C1.11898 9.1558 2.03969 10.6944 3.41315 12.3432C5.07955 14.3301 7.08457 15.8991 9.37493 17.0046C10.25 17.4187 11.418 17.9088 12.723 17.9924C12.8029 17.9962 12.8866 18 12.9626 18C13.8415 18 14.5796 17.6847 15.1579 17.0578C15.1617 17.0502 15.1693 17.0464 15.1731 17.0388C15.3709 16.7995 15.5992 16.5829 15.8389 16.3512C16.0025 16.1954 16.1699 16.0321 16.3335 15.8611C16.7102 15.4698 16.908 15.0139 16.908 14.5467C16.908 14.0756 16.7064 13.6235 16.3221 13.2436L14.2334 11.1503ZM15.5954 15.1507C15.5916 15.1507 15.5916 15.1545 15.5954 15.1507C15.447 15.3103 15.2949 15.4546 15.1313 15.6142C14.884 15.8497 14.6329 16.0967 14.397 16.374C14.0127 16.7843 13.56 16.978 12.9665 16.978C12.9094 16.978 12.8485 16.978 12.7914 16.9742C11.6615 16.9021 10.6114 16.4614 9.82387 16.0853C7.67048 15.0443 5.7796 13.5665 4.20831 11.6936C2.91094 10.1322 2.0435 8.68851 1.46901 7.1385C1.11518 6.19253 0.985824 5.45552 1.04289 4.76029C1.08094 4.3158 1.25214 3.94729 1.56792 3.63197L2.86529 2.33649C3.05171 2.16174 3.24955 2.06676 3.44358 2.06676C3.68327 2.06676 3.87731 2.21112 3.99905 2.33269C4.00286 2.33649 4.00666 2.34029 4.01047 2.34409C4.24255 2.56064 4.46321 2.78478 4.69529 3.02412C4.81323 3.14569 4.93498 3.26726 5.05673 3.39263L6.09538 4.42977C6.49866 4.83247 6.49866 5.20478 6.09538 5.60748C5.98504 5.71765 5.87852 5.82782 5.76818 5.9342C5.4486 6.26092 5.14423 6.56484 4.81323 6.86117C4.80562 6.86876 4.79802 6.87256 4.79421 6.88016C4.46702 7.20688 4.52789 7.526 4.59637 7.74255C4.60018 7.75394 4.60398 7.76534 4.60779 7.77674C4.87791 8.43018 5.25837 9.04562 5.83667 9.77884L5.84047 9.78264C6.89054 11.0743 7.99767 12.0811 9.21894 12.8523C9.37493 12.951 9.53472 13.0308 9.6869 13.1068C9.82387 13.1752 9.95322 13.2398 10.0636 13.3082C10.0788 13.3158 10.094 13.3272 10.1092 13.3348C10.2386 13.3993 10.3603 13.4297 10.4859 13.4297C10.8016 13.4297 10.9995 13.2322 11.0642 13.1676L12.3653 11.8683C12.4947 11.7392 12.7001 11.5834 12.9398 11.5834C13.1757 11.5834 13.3697 11.7316 13.4877 11.8607C13.4915 11.8645 13.4915 11.8645 13.4953 11.8683L15.5916 13.9616C15.9835 14.3491 15.9835 14.748 15.5954 15.1507Z" fill="white"/>
<path d="M9.72868 4.28157C10.7255 4.44873 11.631 4.91982 12.3538 5.64164C13.0767 6.36346 13.5447 7.26763 13.7159 8.26298C13.7577 8.51372 13.9746 8.68848 14.2219 8.68848C14.2523 8.68848 14.279 8.68468 14.3094 8.68088C14.5909 8.63529 14.7774 8.36936 14.7317 8.08823C14.5263 6.88393 13.9556 5.786 13.0843 4.91602C12.2131 4.04603 11.1136 3.47618 9.9075 3.27103C9.62596 3.22544 9.36344 3.41159 9.31398 3.68892C9.26452 3.96625 9.44714 4.23599 9.72868 4.28157Z" fill="white"/>
<path d="M17.9922 7.94024C17.6536 5.95714 16.7177 4.15259 15.2795 2.71654C13.8414 1.2805 12.0342 0.345935 10.0482 0.00781902C9.77051 -0.0415687 9.50799 0.148384 9.45853 0.425715C9.41288 0.706845 9.5993 0.96898 9.88084 1.01837C11.6538 1.31849 13.2707 2.15808 14.5567 3.43836C15.8426 4.72245 16.6796 6.33704 16.9802 8.1074C17.022 8.35814 17.2389 8.5329 17.4862 8.5329C17.5166 8.5329 17.5433 8.5291 17.5737 8.5253C17.8514 8.48351 18.0417 8.21758 17.9922 7.94024Z" fill="white"/>
</svg>
