<svg width="24" height="24" viewBox="0 0 24 24" fill="none" xmlns="http://www.w3.org/2000/svg">
<path d="M17.5034 0H6.49658C2.91431 0 0 2.91431 0 6.49658V17.5036C0 21.0857 2.91431 24 6.49658 24H17.5036C21.0857 24 24 21.0857 24 17.5036V6.49658C24 2.91431 21.0857 0 17.5034 0V0ZM22.593 17.5036C22.593 20.3099 20.3099 22.593 17.5034 22.593H6.49658C3.69012 22.593 1.40698 20.3099 1.40698 17.5036V6.49658C1.40698 3.69012 3.69012 1.40698 6.49658 1.40698H17.5036C20.3099 1.40698 22.593 3.69012 22.593 6.49658V17.5036Z" fill="white"/>
<path d="M12.0001 5.43771C8.38153 5.43771 5.43774 8.3815 5.43774 12C5.43774 15.6186 8.38153 18.5623 12.0001 18.5623C15.6186 18.5623 18.5624 15.6186 18.5624 12C18.5624 8.3815 15.6186 5.43771 12.0001 5.43771ZM12.0001 17.1554C9.15753 17.1554 6.84473 14.8427 6.84473 12C6.84473 9.1575 9.15753 6.8447 12.0001 6.8447C14.8428 6.8447 17.1554 9.1575 17.1554 12C17.1554 14.8427 14.8428 17.1554 12.0001 17.1554Z" fill="white"/>
<path d="M18.7194 3.10715C17.65 3.10715 16.7803 3.97708 16.7803 5.04623C16.7803 6.11557 17.65 6.9855 18.7194 6.9855C19.7887 6.9855 20.6586 6.11557 20.6586 5.04623C20.6586 3.9769 19.7887 3.10715 18.7194 3.10715ZM18.7194 5.57834C18.426 5.57834 18.1873 5.33957 18.1873 5.04623C18.1873 4.75272 18.426 4.51413 18.7194 4.51413C19.0129 4.51413 19.2516 4.75272 19.2516 5.04623C19.2516 5.33957 19.0129 5.57834 18.7194 5.57834Z" fill="white"/>
</svg>
