<svg width="54" height="51" viewBox="0 0 54 51" fill="none" xmlns="http://www.w3.org/2000/svg">
<path d="M27.0005 40.2471C26.9168 40.2471 26.8472 40.3157 26.8472 40.402V44.6472C26.8454 44.6688 26.848 44.6905 26.8549 44.711C26.8619 44.7315 26.873 44.7503 26.8876 44.7663C26.9021 44.7822 26.9199 44.7949 26.9396 44.8037C26.9594 44.8124 26.9807 44.8169 27.0023 44.8169C27.0239 44.8169 27.0452 44.8124 27.065 44.8037C27.0847 44.7949 27.1024 44.7822 27.117 44.7663C27.1316 44.7503 27.1427 44.7315 27.1497 44.711C27.1566 44.6905 27.1592 44.6688 27.1573 44.6472V40.402C27.1567 40.3609 27.1401 40.3217 27.111 40.2928C27.0819 40.2638 27.0427 40.2474 27.0017 40.2471H27.0005ZM27.0005 15.3447C27.0866 15.3447 27.1562 15.275 27.1562 15.191V10.7838C27.158 10.7623 27.1554 10.7406 27.1485 10.7201C27.1415 10.6996 27.1304 10.6807 27.1159 10.6648C27.1013 10.6488 27.0835 10.6361 27.0638 10.6274C27.044 10.6187 27.0227 10.6142 27.0011 10.6142C26.9795 10.6142 26.9582 10.6187 26.9384 10.6274C26.9187 10.6361 26.901 10.6488 26.8864 10.6648C26.8718 10.6807 26.8607 10.6996 26.8537 10.7201C26.8468 10.7406 26.8442 10.7623 26.8461 10.7838V15.1887C26.8461 15.2738 26.9156 15.3424 27.0017 15.3424L27.0005 15.3447ZM27.0005 9.39084C27.0866 9.39084 27.1562 9.32107 27.1562 9.23475V5.16456C27.158 5.143 27.1554 5.12129 27.1485 5.1008C27.1415 5.0803 27.1304 5.06148 27.1159 5.04553C27.1013 5.02957 27.0835 5.01683 27.0638 5.00812C27.044 4.9994 27.0227 4.9949 27.0011 4.9949C26.9795 4.9949 26.9582 4.9994 26.9384 5.00812C26.9187 5.01683 26.901 5.02957 26.8864 5.04553C26.8718 5.06148 26.8607 5.0803 26.8537 5.1008C26.8468 5.12129 26.8442 5.143 26.8461 5.16456V9.23475C26.8461 9.31989 26.9156 9.39084 27.0017 9.39084H27.0005ZM27.0005 3.13775C27.0866 3.13775 27.1562 3.06798 27.1562 2.98166V0.169664C27.158 0.148103 27.1554 0.126387 27.1485 0.105895C27.1415 0.0854021 27.1304 0.0665807 27.1159 0.0506258C27.1013 0.0346709 27.0835 0.0219313 27.0638 0.0132159C27.044 0.00450059 27.0227 0 27.0011 0C26.9795 0 26.9582 0.00450059 26.9384 0.0132159C26.9187 0.0219313 26.901 0.0346709 26.8864 0.0506258C26.8718 0.0665807 26.8607 0.0854021 26.8537 0.105895C26.8468 0.126387 26.8442 0.148103 26.8461 0.169664V2.98166C26.8461 3.06798 26.9156 3.13775 27.0017 3.13775H27.0005ZM1.86789 27.6345C1.86789 27.5494 1.79833 27.4784 1.71226 27.4784H0.155909C0.114632 27.4784 0.0750458 27.4949 0.0458586 27.5241C0.0166714 27.5534 0.000274263 27.5931 0.000274263 27.6345C0.000274263 27.6759 0.0166714 27.7156 0.0458586 27.7449C0.0750458 27.7742 0.114632 27.7906 0.155909 27.7906H1.71343C1.79833 27.7882 1.86671 27.7197 1.86671 27.6345H1.86789ZM6.76331 27.6345C6.76331 27.5494 6.69374 27.4784 6.60767 27.4784H3.30869C3.26741 27.4784 3.22783 27.4949 3.19864 27.5241C3.16945 27.5534 3.15305 27.5931 3.15305 27.6345C3.15305 27.6759 3.16945 27.7156 3.19864 27.7449C3.22783 27.7742 3.26741 27.7906 3.30869 27.7906H6.60767C6.69256 27.7882 6.76331 27.7197 6.76331 27.6345ZM14.9436 27.4784H9.07425C8.98935 27.4784 8.92097 27.5482 8.92097 27.6345C8.92097 27.7197 8.98935 27.7882 9.07425 27.7882H14.9436C15.0285 27.7882 15.0992 27.7197 15.0992 27.6345C15.0989 27.5932 15.0824 27.5537 15.0533 27.5245C15.0241 27.4953 14.9847 27.4787 14.9436 27.4784ZM42.7173 27.6345C42.7173 27.5494 42.6489 27.4784 42.564 27.4784H40.536C40.4947 27.4784 40.4552 27.4949 40.426 27.5241C40.3968 27.5534 40.3804 27.5931 40.3804 27.6345C40.3804 27.6759 40.3968 27.7156 40.426 27.7449C40.4552 27.7742 40.4947 27.7906 40.536 27.7906H42.564C42.6489 27.7882 42.7173 27.7197 42.7173 27.6345ZM49.6265 27.6345C49.6265 27.5494 49.5581 27.4784 49.472 27.4784H44.2571C44.1722 27.4784 44.1038 27.5482 44.1038 27.6345C44.1038 27.7197 44.1722 27.7906 44.2571 27.7906H49.4709C49.5581 27.7882 49.6265 27.7197 49.6265 27.6345ZM11.9028 42.7824C11.8885 42.7679 11.8715 42.7564 11.8528 42.7486C11.8341 42.7407 11.814 42.7367 11.7937 42.7367C11.7734 42.7367 11.7533 42.7407 11.7346 42.7486C11.7159 42.7564 11.6989 42.7679 11.6847 42.7824L10.3936 44.0773C10.379 44.0916 10.3674 44.1087 10.3594 44.1276C10.3515 44.1464 10.3474 44.1667 10.3474 44.1872C10.3474 44.2077 10.3515 44.228 10.3594 44.2469C10.3674 44.2658 10.379 44.2829 10.3936 44.2972C10.4231 44.3268 10.4643 44.3433 10.5033 44.3433C10.5422 44.3433 10.5823 44.3279 10.6129 44.296L11.9028 43.0024C11.9174 42.988 11.929 42.9709 11.937 42.952C11.9449 42.9332 11.949 42.9129 11.949 42.8924C11.949 42.8719 11.9449 42.8516 11.937 42.8327C11.929 42.8138 11.9174 42.7967 11.9028 42.7824ZM36.3858 18.2171C36.3715 18.2026 36.3545 18.1911 36.3358 18.1832C36.3171 18.1754 36.297 18.1713 36.2767 18.1713C36.2564 18.1713 36.2363 18.1754 36.2176 18.1832C36.1989 18.1911 36.1819 18.2026 36.1676 18.2171L34.3142 20.0759C34.2996 20.0903 34.2879 20.1074 34.28 20.1263C34.2721 20.1451 34.268 20.1654 34.268 20.1859C34.268 20.2064 34.2721 20.2267 34.28 20.2456C34.2879 20.2645 34.2996 20.2816 34.3142 20.2959C34.3283 20.3107 34.3452 20.3224 34.3639 20.3305C34.3827 20.3385 34.4029 20.3426 34.4232 20.3426C34.4436 20.3426 34.4638 20.3385 34.4825 20.3305C34.5013 20.3224 34.5182 20.3107 34.5323 20.2959L36.3858 18.437C36.4471 18.3755 36.4471 18.2774 36.3858 18.2171ZM36.9564 17.6459C36.9859 17.6755 37.0272 17.6932 37.0649 17.6932C37.1038 17.6932 37.1451 17.6778 37.1746 17.6459L39.9583 14.8528C39.9729 14.8385 39.9845 14.8214 39.9925 14.8025C40.0004 14.7836 40.0045 14.7633 40.0045 14.7429C40.0045 14.7224 40.0004 14.7021 39.9925 14.6832C39.9845 14.6643 39.9729 14.6472 39.9583 14.6329C39.944 14.6184 39.9271 14.6069 39.9083 14.5991C39.8896 14.5912 39.8695 14.5872 39.8492 14.5872C39.8289 14.5872 39.8088 14.5912 39.7901 14.5991C39.7714 14.6069 39.7544 14.6184 39.7402 14.6329L36.9552 17.4271C36.9408 17.4414 36.9293 17.4585 36.9215 17.4772C36.9137 17.496 36.9097 17.5162 36.9097 17.5365C36.9097 17.5569 36.9137 17.577 36.9215 17.5958C36.9293 17.6146 36.9408 17.6316 36.9552 17.6459H36.9564ZM42.2079 12.5304C42.2468 12.5304 42.2857 12.5162 42.3176 12.4855L43.9022 10.895C43.9168 10.8807 43.9284 10.8636 43.9364 10.8447C43.9443 10.8258 43.9484 10.8055 43.9484 10.785C43.9484 10.7645 43.9443 10.7442 43.9364 10.7253C43.9284 10.7065 43.9168 10.6894 43.9022 10.675C43.8879 10.6604 43.8709 10.6487 43.8521 10.6408C43.8332 10.6328 43.813 10.6287 43.7926 10.6287C43.7721 10.6287 43.7519 10.6328 43.7331 10.6408C43.7142 10.6487 43.6972 10.6604 43.6829 10.675L42.0983 12.2655C42.0836 12.2798 42.072 12.2969 42.0641 12.3158C42.0562 12.3347 42.0521 12.355 42.0521 12.3755C42.0521 12.396 42.0562 12.4163 42.0641 12.4351C42.072 12.454 42.0836 12.4711 42.0983 12.4855C42.1289 12.5162 42.169 12.5304 42.2079 12.5304ZM45.0046 9.72194C45.0447 9.72194 45.0836 9.70775 45.1143 9.67819L46.4643 8.32303C46.4787 8.30873 46.4902 8.2917 46.498 8.27293C46.5058 8.25415 46.5099 8.234 46.5099 8.21365C46.5099 8.1933 46.5058 8.17315 46.498 8.15438C46.4902 8.1356 46.4787 8.11857 46.4643 8.10427C46.45 8.08979 46.433 8.07829 46.4143 8.07045C46.3956 8.0626 46.3755 8.05856 46.3552 8.05856C46.3349 8.05856 46.3148 8.0626 46.2961 8.07045C46.2774 8.07829 46.2604 8.08979 46.2462 8.10427L44.8962 9.45706C44.8815 9.47138 44.8699 9.48848 44.862 9.50737C44.8541 9.52625 44.85 9.54654 44.85 9.56703C44.85 9.58752 44.8541 9.60781 44.862 9.62669C44.8699 9.64558 44.8815 9.66268 44.8962 9.677C44.9268 9.70775 44.9669 9.72312 45.0058 9.72312L45.0046 9.72194ZM10.3771 11.1741C10.4066 11.2036 10.4478 11.219 10.4867 11.219C10.5179 11.22 10.5487 11.2115 10.5749 11.1945C10.6012 11.1776 10.6216 11.153 10.6335 11.1241C10.6454 11.0951 10.6483 11.0633 10.6416 11.0327C10.635 11.0021 10.6192 10.9743 10.5964 10.9529L8.83136 9.18508C8.8171 9.1706 8.80012 9.1591 8.7814 9.15126C8.76268 9.14341 8.74259 9.13937 8.7223 9.13937C8.70201 9.13937 8.68192 9.14341 8.6632 9.15126C8.64448 9.1591 8.62749 9.1706 8.61324 9.18508C8.5988 9.19938 8.58734 9.21641 8.57951 9.23519C8.57169 9.25396 8.56766 9.27411 8.56766 9.29446C8.56766 9.31481 8.57169 9.33496 8.57951 9.35374C8.58734 9.37251 8.5988 9.38955 8.61324 9.40384L10.3759 11.1741H10.3771ZM33.74 34.3961C33.7255 34.4104 33.7141 34.4274 33.7063 34.4462C33.6984 34.465 33.6944 34.4851 33.6944 34.5055C33.6944 34.5258 33.6984 34.546 33.7063 34.5647C33.7141 34.5835 33.7255 34.6005 33.74 34.6148L35.3234 36.2041C35.3526 36.2332 35.392 36.2495 35.4331 36.2495C35.4742 36.2495 35.5136 36.2332 35.5427 36.2041C35.5574 36.1898 35.569 36.1727 35.5769 36.1538C35.5848 36.1349 35.5889 36.1147 35.5889 36.0942C35.5889 36.0737 35.5848 36.0534 35.5769 36.0345C35.569 36.0156 35.5574 35.9985 35.5427 35.9842L33.9569 34.3961C33.9427 34.3816 33.9257 34.3701 33.907 34.3623C33.8882 34.3544 33.8682 34.3504 33.8479 34.3504C33.8276 34.3504 33.8075 34.3544 33.7888 34.3623C33.77 34.3701 33.7531 34.3816 33.7388 34.3961H33.74ZM36.7466 37.1927C36.7323 37.1782 36.7153 37.1667 36.6966 37.1589C36.6779 37.151 36.6578 37.147 36.6375 37.147C36.6172 37.147 36.5971 37.151 36.5784 37.1589C36.5597 37.1667 36.5427 37.1782 36.5284 37.1927C36.5138 37.207 36.5022 37.2241 36.4943 37.243C36.4863 37.2619 36.4823 37.2822 36.4823 37.3027C36.4823 37.3232 36.4863 37.3435 36.4943 37.3623C36.5022 37.3812 36.5138 37.3983 36.5284 37.4127L39.2591 40.1525C39.2732 40.1675 39.2902 40.1794 39.3091 40.1875C39.3279 40.1957 39.3482 40.1999 39.3688 40.1999C39.3893 40.1999 39.4096 40.1957 39.4285 40.1875C39.4473 40.1794 39.4643 40.1675 39.4784 40.1525C39.4929 40.1382 39.5043 40.1212 39.5121 40.1024C39.52 40.0836 39.524 40.0635 39.524 40.0431C39.524 40.0228 39.52 40.0026 39.5121 39.9839C39.5043 39.9651 39.4929 39.9481 39.4784 39.9338L36.7466 37.1927ZM40.1092 40.5676C40.095 40.5531 40.078 40.5416 40.0592 40.5338C40.0405 40.5259 40.0204 40.5219 40.0001 40.5219C39.9799 40.5219 39.9598 40.5259 39.941 40.5338C39.9223 40.5416 39.9053 40.5531 39.8911 40.5676C39.8765 40.5819 39.8649 40.599 39.8569 40.6179C39.849 40.6368 39.8449 40.6571 39.8449 40.6775C39.8449 40.698 39.849 40.7183 39.8569 40.7372C39.8649 40.7561 39.8765 40.7732 39.8911 40.7875L42.4591 43.3642C42.4885 43.3938 42.5298 43.4091 42.5687 43.4091C42.5999 43.4102 42.6307 43.4016 42.6569 43.3847C42.6831 43.3677 42.7036 43.3431 42.7155 43.3142C42.7274 43.2853 42.7302 43.2534 42.7236 43.2228C42.717 43.1922 42.7012 43.1644 42.6784 43.1431L40.1092 40.5676ZM43.499 43.9673C43.4847 43.9526 43.4676 43.941 43.4488 43.933C43.43 43.9251 43.4098 43.921 43.3893 43.921C43.3689 43.921 43.3487 43.9251 43.3298 43.933C43.311 43.941 43.294 43.9526 43.2797 43.9673C43.2651 43.9816 43.2534 43.9987 43.2455 44.0176C43.2376 44.0365 43.2335 44.0568 43.2335 44.0773C43.2335 44.0977 43.2376 44.118 43.2455 44.1369C43.2534 44.1558 43.2651 44.1729 43.2797 44.1872L44.4139 45.3248C44.4431 45.3538 44.4825 45.3701 44.5236 45.3701C44.5647 45.3701 44.6041 45.3538 44.6332 45.3248C44.6477 45.3105 44.6591 45.2935 44.667 45.2747C44.6748 45.2559 44.6788 45.2358 44.6788 45.2154C44.6788 45.1951 44.6748 45.1749 44.667 45.1561C44.6591 45.1374 44.6477 45.1203 44.6332 45.106L43.499 43.9673ZM45.4574 45.9338C45.4431 45.9193 45.4261 45.9078 45.4074 45.9C45.3887 45.8921 45.3686 45.8881 45.3483 45.8881C45.328 45.8881 45.3079 45.8921 45.2892 45.9C45.2705 45.9078 45.2535 45.9193 45.2393 45.9338C45.2248 45.9481 45.2134 45.9651 45.2055 45.9839C45.1977 46.0027 45.1937 46.0228 45.1937 46.0432C45.1937 46.0635 45.1977 46.0837 45.2055 46.1024C45.2134 46.1212 45.2248 46.1382 45.2393 46.1525L46.2462 47.1636C46.2756 47.1931 46.3169 47.2097 46.3558 47.2097C46.3947 47.2097 46.4348 47.1943 46.4643 47.1636C46.4789 47.1493 46.4905 47.1322 46.4985 47.1133C46.5064 47.0944 46.5105 47.0741 46.5105 47.0536C46.5105 47.0331 46.5064 47.0128 46.4985 46.9939C46.4905 46.9751 46.4789 46.958 46.4643 46.9436L45.4574 45.9338ZM35.0086 46.6279C34.993 46.5897 34.9628 46.5592 34.9248 46.5433C34.8868 46.5273 34.844 46.5271 34.8058 46.5428C34.7681 46.5589 34.7383 46.5894 34.7229 46.6275C34.7074 46.6655 34.7076 46.7082 34.7233 46.7462L35.7373 49.2022C35.7532 49.24 35.7832 49.2699 35.821 49.2856C35.8587 49.3013 35.901 49.3015 35.9389 49.2862C36.0179 49.2543 36.0556 49.1632 36.0226 49.0828L35.0086 46.6267V46.6279ZM33.299 42.4832C33.2831 42.4452 33.2529 42.4151 33.2149 42.3993C33.1769 42.3836 33.1342 42.3836 33.0962 42.3993C33.0583 42.4152 33.0282 42.4456 33.0126 42.4837C32.9969 42.5218 32.9968 42.5645 33.0125 42.6027L34.2776 45.6665C34.2849 45.686 34.296 45.7038 34.3102 45.7189C34.3245 45.734 34.3416 45.746 34.3606 45.7543C34.3797 45.7626 34.4001 45.767 34.4209 45.7672C34.4416 45.7674 34.4621 45.7634 34.4813 45.7555C34.5004 45.7475 34.5178 45.7358 34.5324 45.721C34.5469 45.7062 34.5583 45.6886 34.5659 45.6693C34.5736 45.6499 34.5772 45.6292 34.5767 45.6085C34.5762 45.5877 34.5715 45.5672 34.563 45.5483L33.299 42.4832ZM31.3831 37.8431C31.3753 37.8242 31.3639 37.8071 31.3496 37.7926C31.3352 37.7781 31.3182 37.7667 31.2994 37.7588C31.2806 37.751 31.2605 37.7469 31.2402 37.7468C31.2198 37.7468 31.1997 37.7508 31.1808 37.7585C31.162 37.7663 31.1449 37.7777 31.1305 37.7921C31.1161 37.8065 31.1046 37.8236 31.0968 37.8424C31.089 37.8613 31.0849 37.8815 31.0849 37.9019C31.0848 37.9223 31.0888 37.9425 31.0965 37.9613L32.2402 40.7367C32.248 40.7556 32.2594 40.7729 32.2737 40.7874C32.2881 40.8019 32.3052 40.8135 32.324 40.8214C32.3429 40.8293 32.3631 40.8334 32.3835 40.8335C32.4039 40.8335 32.4241 40.8296 32.443 40.8218C32.4619 40.814 32.4791 40.8026 32.4936 40.7882C32.5081 40.7738 32.5196 40.7566 32.5275 40.7378C32.5354 40.7189 32.5395 40.6986 32.5395 40.6781C32.5396 40.6577 32.5357 40.6374 32.5279 40.6184L31.3831 37.8431ZM21.8445 15.1425C21.8066 15.1585 21.7766 15.1888 21.7609 15.2269C21.7452 15.265 21.7452 15.3078 21.7608 15.3459L22.19 16.3865C22.2061 16.4243 22.2365 16.4542 22.2744 16.4697C22.3124 16.4852 22.3549 16.4851 22.3928 16.4693C22.4706 16.4374 22.5083 16.3475 22.4753 16.2671L22.0462 15.2265C22.03 15.189 21.9999 15.1593 21.9622 15.1438C21.9245 15.1284 21.8823 15.1283 21.8445 15.1437V15.1425ZM21.222 14.0404C21.2378 14.0784 21.268 14.1085 21.3059 14.1241C21.3247 14.1319 21.3448 14.1358 21.3651 14.1358C21.3854 14.1357 21.4055 14.1317 21.4242 14.1238C21.4429 14.116 21.46 14.1045 21.4743 14.0901C21.4886 14.0756 21.4999 14.0585 21.5076 14.0397C21.5154 14.0208 21.5193 14.0007 21.5193 13.9803C21.5192 13.96 21.5152 13.9398 21.5073 13.921L20.3436 11.1019C20.3277 11.0642 20.2977 11.0343 20.2599 11.0185C20.2222 11.0028 20.1799 11.0026 20.142 11.018C20.1041 11.0339 20.074 11.0642 20.0583 11.1023C20.0426 11.1405 20.0426 11.1832 20.0583 11.2214L21.222 14.0404ZM19.2907 9.36246C19.2973 9.38295 19.3081 9.40185 19.3224 9.41796C19.3367 9.43407 19.3541 9.44704 19.3737 9.45605C19.3932 9.46507 19.4143 9.46993 19.4358 9.47033C19.4573 9.47074 19.4786 9.46668 19.4985 9.45841C19.5183 9.45014 19.5362 9.43783 19.5511 9.42227C19.566 9.40672 19.5775 9.38824 19.5849 9.368C19.5923 9.34777 19.5954 9.32622 19.5941 9.30471C19.5928 9.2832 19.587 9.2622 19.5772 9.24302L18.9075 7.61826C18.8997 7.59944 18.8882 7.58236 18.8737 7.56801C18.8593 7.55365 18.8421 7.5423 18.8233 7.53461C18.8044 7.52692 18.7843 7.52304 18.7639 7.52319C18.7436 7.52334 18.7235 7.52752 18.7047 7.53549C18.6673 7.55166 18.6377 7.58189 18.6223 7.61969C18.6069 7.6575 18.6068 7.69986 18.6222 7.73769L19.2907 9.36246ZM4.18355 36.9491L1.6533 38.0015C1.62142 38.0161 1.59538 38.0411 1.5794 38.0724C1.56342 38.1037 1.55843 38.1394 1.56526 38.1739C1.57208 38.2084 1.5903 38.2396 1.61698 38.2624C1.64366 38.2852 1.67723 38.2983 1.71226 38.2995C1.7323 38.2995 1.75116 38.296 1.77121 38.2877L4.30027 37.2353C4.37927 37.2033 4.417 37.1135 4.38398 37.0343C4.36855 36.9964 4.33881 36.9662 4.30126 36.9503C4.26371 36.9343 4.2214 36.9339 4.18355 36.9491ZM6.33177 36.3803C6.35182 36.3803 6.37186 36.3756 6.39073 36.3685L11.8757 34.0874C11.8945 34.0798 11.9116 34.0685 11.926 34.0541C11.9405 34.0398 11.9519 34.0227 11.9597 34.0039C11.9675 33.9851 11.9715 33.9649 11.9714 33.9445C11.9714 33.9242 11.9673 33.904 11.9594 33.8852C11.9518 33.8664 11.9405 33.8492 11.9262 33.8347C11.9119 33.8202 11.8948 33.8088 11.8761 33.801C11.8573 33.7931 11.8372 33.7892 11.8169 33.7892C11.7966 33.7893 11.7765 33.7934 11.7578 33.8013L6.27164 36.08C6.25288 36.0878 6.23585 36.0994 6.22153 36.1139C6.20722 36.1284 6.1959 36.1456 6.18824 36.1645C6.18057 36.1834 6.1767 36.2036 6.17685 36.224C6.177 36.2444 6.18116 36.2646 6.18911 36.2834C6.21269 36.3425 6.27046 36.378 6.3306 36.378L6.33177 36.3803ZM14.9341 32.4816L14.0498 32.8482C14.0173 32.8624 13.9906 32.8873 13.9741 32.9189C13.9576 32.9504 13.9524 32.9866 13.9593 33.0216C13.9662 33.0565 13.9847 33.088 14.0119 33.1109C14.0391 33.1338 14.0733 33.1466 14.1088 33.1474C14.1277 33.1474 14.1489 33.1438 14.1677 33.1355L15.052 32.769C15.09 32.7533 15.1202 32.7231 15.1361 32.6851C15.1519 32.647 15.152 32.6043 15.1363 32.5662C15.1207 32.5281 15.0906 32.4977 15.0527 32.4819C15.0148 32.466 14.9721 32.4659 14.9341 32.4816ZM45.8087 19.9719C45.8288 19.9719 45.8476 19.9683 45.8677 19.9601L48.978 18.6676C49.057 18.6357 49.0947 18.5446 49.0629 18.4642C49.0468 18.4264 49.0165 18.3965 48.9785 18.381C48.9405 18.3655 48.898 18.3656 48.8601 18.3814L45.7498 19.6727C45.7172 19.6869 45.6905 19.7119 45.674 19.7434C45.6576 19.7749 45.6523 19.8112 45.6592 19.8461C45.6661 19.881 45.6847 19.9125 45.7119 19.9354C45.7391 19.9583 45.7732 19.9712 45.8087 19.9719ZM20.162 44.1967C20.1243 44.1817 20.0822 44.1821 20.0448 44.1978C20.0074 44.2135 19.9775 44.2432 19.9616 44.2806L17.7768 49.57C17.7668 49.5937 17.7629 49.6195 17.7653 49.645C17.7678 49.6706 17.7765 49.6952 17.7908 49.7166C17.8051 49.7379 17.8244 49.7554 17.8471 49.7673C17.8697 49.7793 17.895 49.7855 17.9207 49.7852C17.9808 49.7852 18.0386 49.7497 18.0633 49.6882L20.2469 44.4001C20.255 44.3812 20.2592 44.361 20.2594 44.3405C20.2595 44.32 20.2556 44.2996 20.2478 44.2807C20.24 44.2617 20.2285 44.2445 20.214 44.2301C20.1994 44.2157 20.1822 44.2043 20.1632 44.1967H20.162ZM31.1072 17.6873C31.1452 17.703 31.1878 17.703 31.2258 17.6872C31.2638 17.6715 31.2941 17.6413 31.31 17.6033L32.4654 14.8032C32.4808 14.765 32.4806 14.7224 32.4649 14.6843C32.4493 14.6463 32.4194 14.616 32.3817 14.5998C32.3439 14.584 32.3013 14.5838 32.2633 14.5993C32.2254 14.6148 32.195 14.6447 32.1789 14.6825L31.0234 17.4839C30.9916 17.5619 31.0293 17.653 31.1072 17.6873ZM32.8463 13.4764C32.8843 13.4921 32.9269 13.4921 32.9649 13.4763C33.0029 13.4606 33.0332 13.4304 33.0491 13.3924L34.5677 9.7113C34.583 9.67332 34.5828 9.63083 34.5671 9.593C34.5514 9.55517 34.5216 9.52504 34.484 9.50909C34.4461 9.49332 34.4036 9.49316 34.3656 9.50866C34.3276 9.52416 34.2973 9.55406 34.2812 9.59186L32.7625 13.273C32.7544 13.2918 32.7501 13.312 32.7499 13.3324C32.7497 13.3529 32.7535 13.3731 32.7612 13.3921C32.7689 13.411 32.7803 13.4282 32.7947 13.4427C32.8091 13.4572 32.8262 13.4686 32.8451 13.4764H32.8463ZM35.1796 7.82284C35.2176 7.83854 35.2603 7.83852 35.2983 7.82279C35.3363 7.80706 35.3665 7.77689 35.3824 7.73888L37.6191 2.31946C37.6347 2.28134 37.6347 2.23856 37.619 2.20045C37.6033 2.16235 37.5732 2.13201 37.5353 2.11607C37.4973 2.10037 37.4547 2.10038 37.4167 2.11611C37.3787 2.13184 37.3484 2.16201 37.3325 2.20002L35.0959 7.62063C35.0629 7.69867 35.0994 7.79091 35.1784 7.82284H35.1796ZM10.8251 21.0787C10.8622 21.09 10.902 21.087 10.937 21.0703C10.9719 21.0537 10.9994 21.0246 11.0141 20.9887C11.0289 20.9528 11.0297 20.9128 11.0166 20.8763C11.0034 20.8398 10.9772 20.8095 10.943 20.7914L7.00619 19.1548C6.96801 19.1395 6.92536 19.1398 6.88743 19.1557C6.84949 19.1717 6.81932 19.2019 6.80339 19.2399C6.77156 19.318 6.80929 19.4102 6.88711 19.4421L10.8251 21.0787ZM13.5004 21.8544L12.6067 21.4843C12.5879 21.4765 12.5677 21.4726 12.5474 21.4726C12.527 21.4727 12.5069 21.4767 12.4881 21.4846C12.4693 21.4924 12.4523 21.5039 12.4379 21.5184C12.4236 21.5328 12.4122 21.55 12.4045 21.5689C12.3967 21.5877 12.3928 21.6079 12.3928 21.6283C12.3929 21.6487 12.3969 21.6689 12.4047 21.6878C12.4126 21.7066 12.424 21.7237 12.4384 21.7381C12.4529 21.7525 12.47 21.7639 12.4888 21.7717L13.3813 22.1418C13.4183 22.153 13.4582 22.15 13.4932 22.1334C13.5281 22.1168 13.5556 22.0877 13.5703 22.0518C13.585 22.0159 13.5859 21.9758 13.5728 21.9393C13.5596 21.9029 13.5334 21.8726 13.4992 21.8544H13.5004ZM40.536 33.4146C40.5715 33.4139 40.6057 33.401 40.6329 33.3781C40.6601 33.3552 40.6787 33.3237 40.6855 33.2888C40.6924 33.2539 40.6872 33.2177 40.6707 33.1861C40.6542 33.1546 40.6275 33.1296 40.595 33.1154L36.9199 31.5876C36.882 31.5719 36.8395 31.5717 36.8015 31.5872C36.7635 31.6027 36.7332 31.6326 36.7171 31.6704C36.6841 31.7496 36.7218 31.8407 36.7996 31.875L40.4783 33.4028C40.4971 33.4111 40.5172 33.4146 40.5372 33.4146H40.536ZM46.4407 35.5455L43.1358 34.1726C43.0979 34.1571 43.0555 34.1571 43.0176 34.1726C42.9798 34.1881 42.9494 34.2178 42.933 34.2554C42.9 34.3346 42.9377 34.4268 43.0156 34.4588L46.3204 35.8328C46.3392 35.8408 46.3594 35.8449 46.3798 35.845C46.4002 35.845 46.4204 35.841 46.4393 35.8332C46.4581 35.8254 46.4753 35.814 46.4897 35.7995C46.5041 35.785 46.5155 35.7678 46.5232 35.7489C46.5313 35.7301 46.5356 35.7099 46.5359 35.6895C46.5361 35.669 46.5323 35.6487 46.5246 35.6298C46.5169 35.6108 46.5055 35.5936 46.4911 35.5792C46.4767 35.5647 46.4596 35.5532 46.4407 35.5455ZM52.3489 38.0004L48.3013 36.3177C48.2632 36.3023 48.2207 36.3024 48.1828 36.3181C48.1449 36.3338 48.1146 36.3638 48.0985 36.4016C48.0654 36.4808 48.1044 36.5731 48.181 36.605L52.2298 38.2877C52.2669 38.2989 52.3067 38.296 52.3417 38.2793C52.3766 38.2627 52.4041 38.2336 52.4189 38.1977C52.4336 38.1618 52.4344 38.1217 52.4213 38.0853C52.4082 38.0488 52.3819 38.0185 52.3478 38.0004H52.3489ZM29.9269 42.391C29.8444 42.4076 29.789 42.4903 29.8055 42.5743L31.0718 48.9622C31.0798 49.0025 31.1034 49.038 31.1374 49.0608C31.1715 49.0836 31.2132 49.092 31.2534 49.084C31.2935 49.076 31.3289 49.0523 31.3517 49.0181C31.3745 48.984 31.3828 48.9422 31.3748 48.9019L30.1085 42.5116C30.1046 42.4917 30.0967 42.4727 30.0855 42.4559C30.0742 42.439 30.0597 42.4246 30.0428 42.4133C30.0259 42.4021 30.007 42.3944 29.9871 42.3905C29.9672 42.3867 29.9468 42.3869 29.9269 42.391ZM29.2407 38.9322C29.1582 38.9487 29.104 39.0315 29.1193 39.1155L29.3598 40.3287C29.3751 40.402 29.44 40.4541 29.5107 40.4541C29.5335 40.4538 29.5559 40.4485 29.5765 40.4386C29.597 40.4286 29.6151 40.4143 29.6295 40.3966C29.6438 40.3789 29.6542 40.3582 29.6598 40.3361C29.6653 40.3139 29.666 40.2908 29.6616 40.2684L29.4223 39.054C29.4185 39.0341 29.4108 39.0151 29.3996 38.9982C29.3885 38.9813 29.3741 38.9667 29.3574 38.9554C29.3406 38.9441 29.3218 38.9362 29.3019 38.9322C29.2821 38.9282 29.2617 38.9282 29.2419 38.9322H29.2407ZM24.6306 15.8355L24.6613 15.8319C24.7013 15.8237 24.7365 15.7999 24.7592 15.7658C24.7819 15.7318 24.7904 15.6901 24.7827 15.6498L24.1519 12.4665C24.144 12.4259 24.1202 12.3901 24.086 12.3671C24.0517 12.344 24.0097 12.3356 23.9692 12.3436C23.8855 12.3601 23.8312 12.4429 23.8477 12.5268L24.4797 15.7101C24.4939 15.7835 24.5587 15.8355 24.6306 15.8355ZM23.6615 10.9399C23.6709 10.9399 23.6815 10.9399 23.6921 10.9376C23.7321 10.9293 23.7673 10.9055 23.79 10.8715C23.8128 10.8374 23.8212 10.7957 23.8136 10.7554L22.9092 6.19216C22.8985 6.15438 22.874 6.12205 22.8405 6.1016C22.8071 6.08116 22.7672 6.07412 22.7288 6.08188C22.6904 6.08964 22.6563 6.11164 22.6334 6.14348C22.6104 6.17531 22.6003 6.21466 22.605 6.25365L23.5105 10.8158C23.5174 10.8508 23.5362 10.8824 23.5637 10.905C23.5913 10.9277 23.6258 10.94 23.6615 10.9399ZM22.1865 3.50314L22.2171 3.50078C22.2574 3.49251 22.2928 3.46859 22.3155 3.43425C22.3383 3.39991 22.3466 3.35794 22.3386 3.31749L21.9165 1.19371C21.9082 1.15357 21.8845 1.11829 21.8506 1.0955C21.8166 1.07271 21.775 1.06424 21.7349 1.07191C21.6512 1.08729 21.5969 1.17006 21.6134 1.25402L22.0344 3.37898C22.0497 3.4523 22.1145 3.50314 22.1876 3.50314H22.1865ZM5.9309 31.9956L5.96037 31.9921L7.99306 31.5865C8.03044 31.5756 8.0624 31.551 8.08263 31.5177C8.10286 31.4843 8.10989 31.4446 8.10234 31.4063C8.0948 31.368 8.07321 31.3339 8.04185 31.3108C8.01049 31.2877 7.97162 31.2772 7.93293 31.2814L5.89906 31.6858C5.86035 31.6925 5.82562 31.7137 5.80184 31.7451C5.77807 31.7765 5.76701 31.8158 5.77089 31.855C5.77477 31.8942 5.7933 31.9305 5.82276 31.9566C5.85222 31.9827 5.89043 31.9966 5.92972 31.9956H5.9309ZM14.9624 29.8777L9.91845 30.884C9.83473 30.9006 9.7805 30.9834 9.797 31.0673C9.80081 31.0872 9.80851 31.1062 9.81966 31.1231C9.8308 31.14 9.84517 31.1546 9.86193 31.1659C9.8787 31.1772 9.89753 31.1851 9.91735 31.1891C9.93717 31.1931 9.95757 31.1931 9.9774 31.1891L15.0214 30.1828C15.0617 30.1745 15.097 30.1506 15.1198 30.1163C15.1425 30.0819 15.1508 30.04 15.1428 29.9995C15.139 29.9796 15.1313 29.9607 15.1202 29.9438C15.109 29.9268 15.0947 29.9123 15.0779 29.901C15.0611 29.8897 15.0423 29.8818 15.0225 29.8778C15.0027 29.8738 14.9822 29.8738 14.9624 29.8777ZM44.1062 24.2194C44.11 24.2394 44.1177 24.2583 44.1288 24.2752C44.14 24.2921 44.1544 24.3067 44.1711 24.318C44.1879 24.3293 44.2067 24.3372 44.2265 24.3412C44.2464 24.3452 44.2668 24.3452 44.2866 24.3412L48.8743 23.4248C48.8942 23.4208 48.9132 23.4128 48.9301 23.4014C48.9471 23.39 48.9616 23.3754 48.9728 23.3584C48.9841 23.3414 48.9919 23.3223 48.9959 23.3022C48.9998 23.2822 48.9997 23.2615 48.9957 23.2415C48.9917 23.2215 48.9838 23.2024 48.9724 23.1855C48.961 23.1685 48.9465 23.154 48.9295 23.1427C48.9125 23.1313 48.8935 23.1235 48.8735 23.1196C48.8535 23.1156 48.8329 23.1157 48.813 23.1197L44.2265 24.0362C44.1439 24.0539 44.0897 24.1355 44.1062 24.2194ZM50.9506 23.0097C50.96 23.0097 50.9718 23.0086 50.9812 23.0062L53.8758 22.428C53.9158 22.4197 53.951 22.3959 53.9737 22.3619C53.9965 22.3278 54.0049 22.2861 53.9972 22.2458C53.9934 22.2258 53.9857 22.2067 53.9745 22.1897C53.9633 22.1727 53.9488 22.1582 53.9319 22.1468C53.915 22.1355 53.896 22.1276 53.8761 22.1237C53.8561 22.1198 53.8356 22.1199 53.8157 22.124L50.9199 22.7023C50.8374 22.7177 50.782 22.8004 50.7985 22.8844C50.815 22.9577 50.8798 23.0097 50.9518 23.0097H50.9506ZM14.9035 45.5199L11.6658 50.3835C11.6545 50.4005 11.6466 50.4195 11.6426 50.4394C11.6387 50.4594 11.6386 50.48 11.6426 50.5C11.6465 50.52 11.6543 50.539 11.6656 50.5559C11.6769 50.5729 11.6914 50.5874 11.7082 50.5988C11.7251 50.6101 11.7441 50.618 11.764 50.622C11.7839 50.626 11.8044 50.626 11.8243 50.6221C11.8443 50.6181 11.8632 50.6102 11.8801 50.5989C11.897 50.5876 11.9115 50.5731 11.9228 50.5562L15.1617 45.6926C15.173 45.6756 15.1809 45.6566 15.1848 45.6367C15.1888 45.6167 15.1888 45.5961 15.1849 45.5761C15.181 45.5561 15.1731 45.5371 15.1619 45.5202C15.1506 45.5032 15.1361 45.4887 15.1192 45.4773C15.1024 45.466 15.0834 45.4581 15.0635 45.4541C15.0436 45.4501 15.0231 45.4501 15.0032 45.454C14.9832 45.458 14.9643 45.4659 14.9474 45.4771C14.9305 45.4885 14.916 45.503 14.9047 45.5199H14.9035ZM34.3613 16.3026L32.7755 18.683C32.7643 18.7 32.7565 18.719 32.7526 18.739C32.7487 18.7591 32.7488 18.7796 32.7529 18.7996C32.7611 18.84 32.7849 18.8754 32.8191 18.8982C32.8534 18.9209 32.8952 18.9291 32.9355 18.9209C32.9757 18.9127 33.0111 18.8888 33.0337 18.8544L34.6184 16.474C34.6393 16.4399 34.6461 16.3989 34.6375 16.3597C34.6289 16.3206 34.6055 16.2863 34.5722 16.2641C34.5389 16.2419 34.4984 16.2335 34.459 16.2407C34.4197 16.2479 34.3847 16.27 34.3613 16.3026ZM36.0061 14.1102C36.04 14.1326 36.0815 14.1406 36.1213 14.1324C36.161 14.1242 36.196 14.1005 36.2183 14.0665L39.1589 9.65335C39.171 9.63645 39.1796 9.61727 39.1842 9.59695C39.1888 9.57664 39.1892 9.5556 39.1855 9.53511C39.1818 9.51462 39.174 9.49509 39.1626 9.47769C39.1512 9.46029 39.1364 9.44538 39.1191 9.43384C39.1018 9.42231 39.0824 9.41439 39.062 9.41056C39.0415 9.40673 39.0206 9.40706 39.0003 9.41155C38.98 9.41603 38.9608 9.42458 38.9439 9.43666C38.927 9.44875 38.9127 9.46413 38.9019 9.48189L35.9613 13.895C35.9141 13.9659 35.9342 14.0617 36.0061 14.1102ZM7.25379 14.5809C7.27068 14.5923 7.28968 14.6003 7.30968 14.6043C7.32967 14.6083 7.35027 14.6083 7.37025 14.6042C7.39024 14.6001 7.40921 14.5921 7.42606 14.5806C7.44291 14.569 7.4573 14.5543 7.46838 14.5371C7.51554 14.4661 7.49668 14.3692 7.42475 14.3219L4.32739 12.2454C4.31043 12.2341 4.29144 12.2263 4.27148 12.2225C4.25152 12.2186 4.23099 12.2186 4.21106 12.2227C4.19113 12.2268 4.1722 12.2347 4.15534 12.2461C4.13848 12.2575 4.12403 12.2722 4.1128 12.2892C4.10158 12.3062 4.0938 12.3252 4.08992 12.3452C4.08603 12.3653 4.08612 12.3858 4.09017 12.4058C4.09422 12.4258 4.10216 12.4448 4.11353 12.4617C4.1249 12.4786 4.13947 12.4931 4.15643 12.5044L7.25379 14.5809ZM9.79818 16.1004C9.75102 16.1713 9.76989 16.2683 9.84063 16.3156L13.3554 18.6735C13.3825 18.6901 13.412 18.6983 13.4414 18.6983C13.4745 18.6982 13.5067 18.6873 13.5332 18.6675C13.5597 18.6476 13.5791 18.6197 13.5886 18.5879C13.5981 18.5562 13.5972 18.5222 13.586 18.4909C13.5748 18.4597 13.5539 18.4329 13.5263 18.4145L10.0104 16.0566C9.94085 16.0093 9.84534 16.0282 9.79818 16.1004ZM37.7959 35.0275C37.829 35.0274 37.8611 35.0166 37.8876 34.9967C37.9141 34.9768 37.9336 34.9489 37.9431 34.9171C37.9526 34.8854 37.9517 34.8514 37.9404 34.8201C37.9292 34.7889 37.9083 34.7621 37.8808 34.7437L34.9509 32.7784C34.8801 32.7311 34.7834 32.75 34.7363 32.821C34.6891 32.8931 34.708 32.9889 34.7775 33.0362L37.7075 35.0015C37.7358 35.0169 37.7664 35.0264 37.7959 35.0264V35.0275ZM39.9913 36.1557C39.9743 36.1443 39.9553 36.1364 39.9353 36.1325C39.9154 36.1285 39.8948 36.1285 39.8748 36.1325C39.8548 36.1365 39.8358 36.1445 39.8189 36.1558C39.802 36.1672 39.7874 36.1818 39.7761 36.1988C39.7648 36.2158 39.757 36.2349 39.753 36.2549C39.7491 36.275 39.7491 36.2956 39.7531 36.3157C39.7571 36.3357 39.765 36.3547 39.7763 36.3717C39.7876 36.3887 39.8022 36.4033 39.8192 36.4146L44.645 39.6488C44.6619 39.6602 44.6809 39.6682 44.7009 39.6722C44.7209 39.6762 44.7415 39.6762 44.7615 39.6721C44.7815 39.668 44.8004 39.66 44.8173 39.6485C44.8341 39.637 44.8485 39.6222 44.8596 39.605C44.9068 39.5341 44.8879 39.4371 44.816 39.3898L39.9913 36.1557ZM38.343 44.3871C38.3318 44.3702 38.3174 44.3556 38.3006 44.3443C38.2838 44.333 38.265 44.3252 38.2451 44.3212C38.2253 44.3173 38.2049 44.3173 38.185 44.3213C38.1652 44.3253 38.1464 44.3332 38.1296 44.3445C38.0577 44.3918 38.0388 44.4876 38.086 44.5597L38.9644 45.8794C38.9754 45.8966 38.9898 45.9113 39.0067 45.9229C39.0235 45.9344 39.0425 45.9424 39.0625 45.9465C39.0825 45.9506 39.1031 45.9506 39.1231 45.9466C39.1431 45.9426 39.1621 45.9346 39.1789 45.9231C39.2509 45.8758 39.2697 45.7789 39.2226 45.7067L38.3442 44.3859L38.343 44.3871ZM34.6962 38.9097C34.685 38.8926 34.6706 38.878 34.6537 38.8666C34.6368 38.8551 34.6178 38.8472 34.5978 38.8433C34.5778 38.8393 34.5573 38.8394 34.5373 38.8435C34.5174 38.8476 34.4984 38.8556 34.4816 38.8671C34.4109 38.9144 34.3908 39.0114 34.438 39.0824L37.1922 43.2188C37.2146 43.2528 37.2495 43.2765 37.2893 43.2847C37.3291 43.2929 37.3705 43.2849 37.4045 43.2625C37.4776 43.2152 37.4964 43.1182 37.4493 43.0473L34.6962 38.9085V38.9097ZM32.4324 35.7914C32.3617 35.8387 32.3428 35.9345 32.39 36.0067L33.3096 37.3902C33.3208 37.4074 33.3353 37.4222 33.3523 37.4338C33.3693 37.4453 33.3884 37.4532 33.4085 37.4572C33.4287 37.4612 33.4494 37.4611 33.4694 37.4569C33.4895 37.4527 33.5085 37.4445 33.5254 37.4328C33.5961 37.3855 33.6162 37.2897 33.569 37.2175L32.6482 35.834C32.637 35.8169 32.6225 35.8023 32.6057 35.7909C32.5888 35.7794 32.5698 35.7715 32.5498 35.7676C32.5298 35.7636 32.5092 35.7637 32.4893 35.7678C32.4693 35.7719 32.4504 35.7799 32.4336 35.7914H32.4324ZM19.3721 16.1784C19.3013 16.2257 19.2813 16.3203 19.3284 16.3936L20.3754 17.9628C20.3865 17.98 20.4009 17.9948 20.4178 18.0063C20.4346 18.0178 20.4536 18.0258 20.4736 18.0299C20.4936 18.034 20.5141 18.034 20.5341 18.03C20.5541 18.026 20.5731 18.018 20.59 18.0066C20.6608 17.9593 20.6808 17.8635 20.6325 17.7913L19.5867 16.221C19.5395 16.15 19.444 16.1299 19.3721 16.1772V16.1784ZM15.3173 10.3688C15.3403 10.4027 15.3756 10.4263 15.4157 10.4344C15.4558 10.4426 15.4975 10.4347 15.5319 10.4125C15.6026 10.3652 15.6227 10.2683 15.5755 10.1973L14.1807 8.10191C14.1694 8.0849 14.1549 8.0703 14.1379 8.05893C14.121 8.04755 14.102 8.03964 14.082 8.03563C14.0621 8.03162 14.0415 8.0316 14.0215 8.03557C14.0015 8.03953 13.9825 8.04741 13.9655 8.05875C13.9486 8.07008 13.934 8.08466 13.9227 8.10164C13.9113 8.11862 13.9035 8.13767 13.8995 8.15771C13.8955 8.17775 13.8954 8.19838 13.8994 8.21843C13.9033 8.23848 13.9112 8.25755 13.9225 8.27455L15.3173 10.3688ZM13.4485 7.5615C13.4596 7.57867 13.474 7.59345 13.4908 7.60497C13.5077 7.61649 13.5267 7.62452 13.5466 7.6286C13.5666 7.63267 13.5872 7.63271 13.6072 7.6287C13.6272 7.62469 13.6462 7.61672 13.6631 7.60525C13.735 7.55795 13.7539 7.46217 13.7067 7.39004L13.3271 6.82125C13.3159 6.80418 13.3014 6.78951 13.2846 6.7781C13.2677 6.7667 13.2487 6.75878 13.2287 6.75482C13.2087 6.75085 13.1881 6.75092 13.1682 6.75502C13.1482 6.75912 13.1293 6.76716 13.1125 6.77868C13.0417 6.82598 13.0217 6.92295 13.07 6.9939L13.4485 7.5615ZM12.1539 5.61865C12.1769 5.65257 12.2123 5.67613 12.2523 5.68431C12.2924 5.69248 12.3341 5.68462 12.3685 5.6624C12.4404 5.61392 12.4593 5.51813 12.4121 5.446L11.9228 4.71166C11.912 4.69391 11.8977 4.67852 11.8808 4.66644C11.8638 4.65435 11.8447 4.64581 11.8244 4.64132C11.8041 4.63684 11.7831 4.6365 11.7627 4.64033C11.7423 4.64416 11.7229 4.65208 11.7056 4.66362C11.6883 4.67515 11.6735 4.69006 11.6621 4.70747C11.6507 4.72487 11.6429 4.7444 11.6392 4.76489C11.6355 4.78538 11.6359 4.80641 11.6405 4.82673C11.645 4.84704 11.6537 4.86623 11.6658 4.88313L12.1539 5.61746V5.61865ZM9.41027 39.2408L4.67757 42.4135C4.64317 42.4362 4.61919 42.4717 4.6109 42.5122C4.6026 42.5527 4.61068 42.5948 4.63335 42.6293C4.65602 42.6638 4.69143 42.6878 4.73178 42.6961C4.77214 42.7045 4.81413 42.6964 4.84853 42.6736L9.58124 39.4998C9.65198 39.4525 9.67085 39.3567 9.62368 39.2846C9.57652 39.2136 9.48102 39.1923 9.41145 39.2408H9.41027ZM11.575 38.1316C11.6045 38.1316 11.634 38.1233 11.6611 38.1056L13.5287 36.8545C13.5457 36.8433 13.5602 36.8288 13.5716 36.8118C13.583 36.7949 13.5909 36.776 13.595 36.756C13.599 36.736 13.5991 36.7154 13.5952 36.6954C13.5913 36.6754 13.5835 36.6563 13.5723 36.6393C13.5611 36.6223 13.5466 36.6077 13.5298 36.5963C13.5129 36.5849 13.494 36.5769 13.4741 36.5728C13.4541 36.5688 13.4336 36.5687 13.4136 36.5726C13.3937 36.5765 13.3747 36.5843 13.3577 36.5955L11.4901 37.8478C11.4626 37.8662 11.4417 37.893 11.4305 37.9242C11.4193 37.9554 11.4183 37.9894 11.4278 38.0212C11.4374 38.053 11.4568 38.0809 11.4833 38.1008C11.5098 38.1206 11.5419 38.1314 11.575 38.1316ZM35.9 21.6664C35.9295 21.7114 35.9778 21.7362 36.0285 21.7362C36.058 21.7362 36.0875 21.7279 36.1146 21.7102L40.3096 18.8982C40.3266 18.8869 40.3412 18.8724 40.3526 18.8555C40.3639 18.8386 40.3718 18.8196 40.3759 18.7996C40.38 18.7796 40.38 18.7591 40.3762 18.739C40.3723 18.719 40.3645 18.7 40.3533 18.683C40.342 18.666 40.3276 18.6513 40.3107 18.6399C40.2939 18.6285 40.2749 18.6206 40.255 18.6165C40.2351 18.6124 40.2146 18.6124 40.1946 18.6163C40.1746 18.6201 40.1556 18.6279 40.1387 18.6392L35.9413 21.4512C35.8717 21.5009 35.8528 21.5967 35.9 21.6664ZM42.0782 17.5241C42.0893 17.5413 42.1037 17.556 42.1205 17.5676C42.1374 17.5791 42.1564 17.5871 42.1763 17.5912C42.1963 17.5953 42.2169 17.5953 42.2369 17.5913C42.2569 17.5873 42.2759 17.5793 42.2928 17.5679L44.6368 15.9951C44.6545 15.9842 44.6698 15.9699 44.6819 15.9529C44.6939 15.936 44.7024 15.9167 44.7069 15.8964C44.7114 15.8761 44.7117 15.855 44.7079 15.8346C44.7041 15.8141 44.6962 15.7946 44.6847 15.7772C44.6732 15.7599 44.6583 15.7451 44.6409 15.7336C44.6236 15.7222 44.6041 15.7144 44.5837 15.7106C44.5633 15.7069 44.5423 15.7073 44.522 15.7119C44.5018 15.7165 44.4827 15.7252 44.4658 15.7373L42.1218 17.3089C42.0499 17.3574 42.0311 17.4543 42.0782 17.5241ZM45.4326 15.275C45.4437 15.2923 45.4581 15.3072 45.4751 15.3189C45.492 15.3305 45.5111 15.3386 45.5313 15.3427C45.5514 15.3467 45.5721 15.3467 45.5922 15.3426C45.6124 15.3385 45.6315 15.3304 45.6484 15.3187L49.8458 12.5044C49.8627 12.493 49.8772 12.4785 49.8884 12.4615C49.8997 12.4446 49.9075 12.4256 49.9115 12.4056C49.9154 12.3856 49.9154 12.365 49.9114 12.3451C49.9074 12.3251 49.8996 12.3061 49.8883 12.2892C49.8769 12.2722 49.8624 12.2577 49.8455 12.2464C49.8286 12.2351 49.8097 12.2273 49.7897 12.2233C49.7698 12.2193 49.7493 12.2194 49.7294 12.2234C49.7095 12.2274 49.6905 12.2352 49.6737 12.2466L45.4762 15.0609C45.4055 15.1082 45.3866 15.2028 45.4326 15.275ZM23.1521 47.0453C23.0696 47.03 22.987 47.0832 22.9694 47.1671L22.6769 48.6453C22.6604 48.728 22.7147 48.8096 22.7984 48.8274L22.829 48.8297C22.9021 48.8297 22.9658 48.7777 22.9811 48.7056L23.2735 47.2286C23.2778 47.2086 23.2781 47.1879 23.2743 47.1677C23.2705 47.1476 23.2627 47.1284 23.2513 47.1113C23.24 47.0942 23.2254 47.0796 23.2084 47.0683C23.1913 47.0569 23.1722 47.0491 23.1521 47.0453ZM23.843 43.5617C23.7605 43.5451 23.678 43.5995 23.6615 43.6835L23.1663 46.1857C23.1497 46.2684 23.204 46.3512 23.2877 46.3689L23.3172 46.3713C23.3903 46.3713 23.4539 46.3193 23.4681 46.246L23.9633 43.7438C23.9674 43.7239 23.9676 43.7034 23.9638 43.6834C23.9599 43.6635 23.9522 43.6445 23.941 43.6276C23.9298 43.6106 23.9154 43.5961 23.8986 43.5848C23.8818 43.5735 23.8629 43.5656 23.843 43.5617ZM29.4176 15.4382C29.4282 15.4405 29.4388 15.4405 29.4482 15.4405C29.519 15.4405 29.5838 15.3897 29.5992 15.3164L29.8137 14.2296C29.8302 14.1457 29.776 14.0641 29.6923 14.0464C29.6086 14.031 29.5272 14.0854 29.5095 14.1682L29.295 15.2561C29.2808 15.34 29.3339 15.4216 29.4176 15.4382ZM29.9953 12.528C30.0059 12.5304 30.0165 12.5304 30.026 12.5304C30.0967 12.5304 30.1616 12.4795 30.1769 12.4062L31.0069 8.21897C31.0234 8.13502 30.9692 8.05342 30.8855 8.03569C30.803 8.02031 30.7204 8.07353 30.7039 8.15748L29.8727 12.3436C29.8574 12.4299 29.9128 12.5103 29.9965 12.528H29.9953ZM31.08 7.05894C31.0895 7.06248 31.1001 7.06248 31.1095 7.06248C31.1814 7.06248 31.2463 7.01045 31.2616 6.93714L31.6283 5.08061C31.6364 5.04015 31.6282 4.99811 31.6054 4.96374C31.5827 4.92936 31.5472 4.90547 31.5069 4.89732C31.4665 4.88916 31.4246 4.89742 31.3903 4.92026C31.3561 4.9431 31.3322 4.97866 31.3241 5.01912L30.9574 6.87565C30.9409 6.96079 30.9963 7.0412 31.08 7.05894ZM0.124075 22.428L1.45169 22.694L1.48234 22.6964C1.55426 22.6964 1.61911 22.6455 1.63444 22.5722C1.64977 22.4883 1.59671 22.4067 1.513 22.3889L0.185385 22.1229C0.101673 22.1075 0.0203181 22.1619 0.00263236 22.2458C-0.0126953 22.3286 0.040362 22.4114 0.124075 22.428ZM3.13419 23.0287L5.90024 23.5809L5.93208 23.5833C6.00282 23.5833 6.06767 23.5324 6.08299 23.4591C6.09832 23.3751 6.04527 23.2935 5.96155 23.2758L3.19432 22.7236C3.11179 22.707 3.02925 22.7614 3.01275 22.8454C2.99506 22.9293 3.04812 23.0121 3.13419 23.0287ZM14.0793 24.897L9.68028 24.0184C9.6414 24.0137 9.60217 24.0239 9.57042 24.0469C9.53868 24.0699 9.51675 24.104 9.50901 24.1425C9.50127 24.181 9.5083 24.2211 9.52868 24.2546C9.54906 24.2881 9.5813 24.3128 9.61897 24.3235L14.0192 25.2009C14.0298 25.2045 14.0392 25.2045 14.0487 25.2045C14.1218 25.2045 14.1842 25.1524 14.1996 25.0791C14.2037 25.0592 14.2039 25.0387 14.2 25.0188C14.1962 24.9988 14.1885 24.9799 14.1773 24.9629C14.1661 24.946 14.1517 24.9315 14.1349 24.9201C14.1181 24.9088 14.0992 24.901 14.0793 24.897ZM40.3592 30.4572C40.3686 30.4607 40.3804 30.4607 40.3886 30.4607C40.4276 30.4617 40.4656 30.4479 40.4948 30.4221C40.5241 30.3962 40.5425 30.3602 40.5464 30.3213C40.5503 30.2823 40.5393 30.2434 40.5158 30.2122C40.4922 30.1811 40.4577 30.16 40.4193 30.1533L38.2439 29.7193C38.1602 29.7027 38.0789 29.7571 38.0612 29.8411C38.0459 29.925 38.0989 30.0066 38.1826 30.0244L40.3592 30.4572ZM42.9248 30.6535C42.8411 30.6381 42.7597 30.6913 42.742 30.7753C42.7267 30.8604 42.7798 30.9408 42.8635 30.9585L44.2276 31.2305C44.2371 31.2341 44.2477 31.2341 44.2571 31.2341C44.296 31.2348 44.3337 31.2207 44.3627 31.1948C44.3917 31.1688 44.4099 31.1328 44.4136 31.094C44.4173 31.0552 44.4063 31.0164 44.3828 30.9854C44.3592 30.9544 44.3249 30.9334 44.2866 30.9266L42.9248 30.6546V30.6535ZM49.3624 31.9388L45.6118 31.1891C45.5715 31.1811 45.5296 31.1895 45.4955 31.2125C45.4613 31.2354 45.4376 31.2711 45.4297 31.3115C45.4217 31.352 45.4301 31.394 45.453 31.4282C45.4758 31.4625 45.5114 31.4862 45.5517 31.4942L49.3011 32.2427C49.3105 32.2451 49.3211 32.2451 49.3306 32.2451C49.4037 32.2451 49.4673 32.1943 49.4827 32.1209C49.4868 32.1011 49.4869 32.0806 49.4831 32.0606C49.4793 32.0407 49.4716 32.0217 49.4604 32.0047C49.4492 31.9878 49.4348 31.9733 49.418 31.962C49.4011 31.9506 49.3823 31.9428 49.3624 31.9388ZM53.877 32.8399L51.1593 32.296C51.0756 32.2794 50.9942 32.3338 50.9765 32.4178C50.9612 32.5017 51.0142 32.5833 51.098 32.601L53.8145 33.1426C53.8239 33.145 53.8357 33.145 53.8451 33.145C53.9159 33.145 53.9819 33.0941 53.9961 33.0208C54.0004 33.0009 54.0007 32.9802 53.9969 32.9602C53.9932 32.9401 53.9855 32.9209 53.9743 32.9039C53.9631 32.8868 53.9486 32.8722 53.9317 32.8608C53.9148 32.8494 53.8958 32.8415 53.8758 32.8375L53.877 32.8399ZM43.6888 20.4307C43.6228 20.4685 43.1417 20.7523 42.689 21.3743C42.5333 21.5872 42.4944 21.8036 42.5711 22.0176C42.6642 22.2742 42.9095 22.4741 43.0946 22.5202C43.631 22.6514 44.6957 21.9289 44.8348 21.7634C44.9905 21.3105 44.7476 20.9214 44.4776 20.653C44.309 20.4827 44.039 20.3964 43.6888 20.4307ZM13.5098 13.7898C13.4863 13.2718 13.3094 12.7089 12.8566 12.3625C12.5961 12.165 12.365 12.0846 12.1704 12.1283C12.0478 12.159 11.9395 12.2313 11.8639 12.3329C11.9429 12.466 12.0499 12.5802 12.1775 12.6676C12.7788 13.1039 13.2245 13.4788 13.5098 13.7909V13.7898ZM18.9205 42.3366L18.7991 42.4785C18.7859 42.494 18.7698 42.5068 18.7517 42.5161C18.7336 42.5254 18.7139 42.531 18.6937 42.5327C18.6527 42.536 18.6122 42.5229 18.5809 42.4962C18.5497 42.4696 18.5302 42.4316 18.5269 42.3905C18.5236 42.3495 18.5367 42.3088 18.5632 42.2775C18.5904 42.2479 18.8934 41.8943 19.2353 41.4994C19.3037 41.2865 19.0974 40.9992 19.0101 40.9046C18.9857 40.8739 18.9736 40.8351 18.9764 40.796C18.9792 40.7568 18.9967 40.7201 19.0252 40.6933C19.0538 40.6664 19.0914 40.6513 19.1306 40.651C19.1697 40.6508 19.2075 40.6653 19.2365 40.6917C19.2483 40.7059 19.4381 40.9117 19.5195 41.1742L19.6374 41.0418C19.7458 40.7627 19.2813 40.2873 19.1044 40.1052C19.0455 40.0449 19.0455 39.9456 19.108 39.8865C19.1681 39.8273 19.2671 39.8273 19.3261 39.8888C19.5041 40.0721 19.8154 40.3902 19.9239 40.7237C20.0192 40.6165 20.1195 40.5139 20.2245 40.4162C20.2328 40.4079 20.2457 40.4008 20.2564 40.3937C20.2387 40.363 20.2198 40.3275 20.195 40.2885C19.6326 39.352 18.1883 38.1671 17.383 37.7402L16.5152 38.769C16.5022 38.7849 16.4862 38.798 16.4681 38.8077C16.45 38.8173 16.4302 38.8232 16.4098 38.8251C16.3894 38.827 16.3688 38.8248 16.3492 38.8186C16.3297 38.8124 16.3116 38.8024 16.2959 38.7891C16.2803 38.776 16.2674 38.7599 16.258 38.7418C16.2486 38.7236 16.2429 38.7038 16.2413 38.6834C16.2396 38.6631 16.2421 38.6426 16.2484 38.6231C16.2548 38.6037 16.2649 38.5858 16.2782 38.5703L17.0906 37.6089C17.0022 37.5782 16.9326 37.5557 16.8748 37.5427L16.8725 37.5439C16.8689 37.5498 16.6131 37.875 16.2311 38.309V38.3102L16.2287 38.3114C15.9932 38.5806 15.7506 38.8436 15.5012 39.1001L15.4152 39.1888L15.3091 39.1237C14.7808 38.7974 13.3813 38.432 12.4758 38.8707C12.0089 39.0954 11.7354 39.5069 11.6658 40.0934C11.5738 40.8561 11.7318 41.4426 12.1374 41.8364C12.918 42.5956 14.3929 42.4537 14.6582 42.4206C14.7231 42.1486 14.8233 41.8707 14.9577 41.5893L14.9695 41.5632C14.9864 41.5289 15.0153 41.5021 15.0506 41.4877C15.086 41.4733 15.1253 41.4725 15.1613 41.4853C15.1972 41.4982 15.2272 41.5238 15.2455 41.5573C15.2638 41.5909 15.2693 41.63 15.2607 41.6673C15.2572 41.6815 15.2489 41.6933 15.2371 41.7229C14.9153 42.3969 14.347 44.0631 16.013 45.0055C16.9102 45.514 17.9065 45.4549 18.5491 44.8565C19.1811 44.2688 19.3155 43.3394 18.9205 42.3378V42.3366ZM14.3576 39.2834C14.3281 39.365 14.2397 39.4052 14.1595 39.3768C14.1477 39.3732 13.1455 39.0173 12.5748 39.469C12.5477 39.4927 12.5135 39.501 12.4805 39.501C12.4484 39.5006 12.4173 39.4903 12.3912 39.4714C12.3652 39.4526 12.3457 39.4262 12.3352 39.3957C12.3247 39.3653 12.3239 39.3324 12.3328 39.3015C12.3418 39.2706 12.36 39.2432 12.385 39.2231C13.0913 38.6637 14.2173 39.0658 14.2644 39.0824C14.3458 39.1143 14.387 39.2018 14.3576 39.2834ZM18.5102 39.3579C18.523 39.3419 18.5388 39.3287 18.5568 39.319C18.5747 39.3092 18.5945 39.3032 18.6148 39.3012C18.6351 39.2992 18.6556 39.3013 18.6751 39.3074C18.6946 39.3135 18.7127 39.3234 18.7283 39.3366C18.7318 39.339 18.8179 39.4111 18.9464 39.527C19.0101 39.5837 19.016 39.6831 18.9582 39.7469C18.9447 39.7623 18.9282 39.7748 18.9097 39.7837C18.8913 39.7925 18.8713 39.7976 18.8508 39.7986C18.8304 39.7996 18.8099 39.7965 18.7907 39.7894C18.7715 39.7824 18.7539 39.7715 18.7389 39.7576C18.6163 39.6464 18.5326 39.5766 18.5302 39.5755C18.4992 39.549 18.4797 39.5114 18.4759 39.4708C18.4722 39.4301 18.4845 39.3896 18.5102 39.3579ZM15.9634 44.3244C15.9329 44.2967 15.9145 44.2581 15.9123 44.2169C15.9101 44.1756 15.9242 44.1352 15.9516 44.1044C15.9792 44.0741 16.0175 44.0559 16.0583 44.0537C16.0991 44.0515 16.1391 44.0655 16.1698 44.0926C16.2169 44.134 17.337 45.1108 18.3545 44.2617C18.3861 44.2355 18.4268 44.223 18.4676 44.2269C18.5084 44.2308 18.546 44.2507 18.5721 44.2824C18.5982 44.3141 18.6107 44.3549 18.6068 44.3958C18.603 44.4367 18.583 44.4744 18.5515 44.5006C18.2467 44.7667 17.8566 44.9136 17.4526 44.9145C16.6355 44.9156 15.9729 44.3327 15.9623 44.3232L15.9634 44.3244Z" fill="white"/>
<path d="M23.0555 42.2744C23.171 42.1005 22.9871 41.5318 22.1275 40.4569C21.3781 39.5438 20.5607 38.6892 19.6822 37.9003C18.2862 36.6433 15.6982 34.9381 14.8163 35.1261C14.775 35.1356 14.7384 35.1474 14.7078 35.1651C14.7 35.1727 14.6925 35.1806 14.6854 35.1888C14.6724 35.2018 14.6571 35.2124 14.6406 35.2195C14.6205 35.2432 14.6028 35.268 14.5899 35.2999C14.2456 36.0757 15.4718 37.4202 16.0991 37.9925C16.2087 37.8672 16.3042 37.7525 16.382 37.6567C16.3467 37.5633 16.3243 37.4261 16.4139 37.3161C16.5388 37.1636 16.7947 37.1707 17.2392 37.3374C17.3008 37.3607 17.3614 37.3868 17.4208 37.4155C18.2579 37.8222 19.839 39.0982 20.4604 40.1317C20.6254 40.4084 20.7162 40.6248 20.6172 40.7891C20.5382 40.918 20.379 40.95 20.2022 40.95L20.142 40.9488C20.0642 41.0316 19.9781 41.1285 19.8862 41.2326L19.8826 41.2361L19.7187 41.4206C20.6313 42.0237 22.0497 42.5771 22.7536 42.4446C22.8998 42.4127 23.0012 42.3571 23.0555 42.2744ZM16.066 35.877C16.0568 35.8952 16.0441 35.9115 16.0285 35.9247C16.013 35.9379 15.995 35.9479 15.9756 35.9541C15.9561 35.9602 15.9357 35.9625 15.9154 35.9606C15.8951 35.9587 15.8754 35.9528 15.8574 35.9432C15.1947 35.5968 15.0214 35.637 15.0025 35.6429C14.9566 35.6949 15.0532 35.9409 15.1959 36.1324C15.2478 36.2022 15.2325 36.2992 15.1641 36.35C15.1358 36.3701 15.1028 36.3808 15.0721 36.3808C15.0249 36.3808 14.9778 36.3595 14.9471 36.3181C14.8705 36.2152 14.5038 35.6866 14.7939 35.4135C14.9742 35.2444 15.335 35.3189 16.0012 35.6665C16.0767 35.7055 16.105 35.799 16.0649 35.877H16.066ZM16.7829 36.3086C16.772 36.3258 16.7578 36.3406 16.7412 36.3523C16.7246 36.364 16.7058 36.3722 16.686 36.3766C16.6662 36.381 16.6457 36.3815 16.6257 36.3779C16.6057 36.3744 16.5866 36.3669 16.5695 36.3559C16.5671 36.3559 16.4681 36.2897 16.3184 36.1987C16.2832 36.1775 16.2577 36.1433 16.2476 36.1034C16.2374 36.0636 16.2434 36.0213 16.2641 35.9858C16.2854 35.9507 16.3196 35.9255 16.3593 35.9155C16.3991 35.9055 16.4411 35.9117 16.4764 35.9326C16.5639 35.9844 16.6504 36.038 16.7357 36.0934C16.8077 36.1407 16.8277 36.2365 16.7829 36.3086Z" fill="white"/>
<path d="M31.9537 34.0557C32.2861 33.6359 32.5986 33.2398 32.8804 32.9182C34.03 31.5938 37.6803 28.2792 38.0883 27.9351C38.2474 27.8015 38.3759 27.7163 38.4891 27.6395C38.7489 27.478 38.9755 27.268 39.1565 27.021C39.5986 26.464 40.9604 25.2875 41.4073 24.9008L41.4981 24.8239C41.5688 24.7624 41.7339 24.63 41.9638 24.4467C42.5745 23.9583 43.6062 23.1341 44.2299 22.5452C43.908 22.7131 43.5461 22.8456 43.2348 22.8456C43.1634 22.8462 43.0921 22.8383 43.0226 22.8219C42.8544 22.7701 42.7003 22.6802 42.5721 22.5593C42.4439 22.4383 42.3451 22.2895 42.2833 22.1243C42.2031 21.9067 42.1678 21.5685 42.4413 21.1913C42.5887 20.9902 42.7361 20.8223 42.8764 20.6828C42.5152 20.8664 42.1776 21.0931 41.8706 21.358C40.9958 22.0959 39.621 22.9969 38.5162 23.7206C37.8572 24.1534 37.29 24.5271 37.02 24.7376C36.2947 25.2885 35.5457 25.8073 34.7751 26.2926C34.728 26.3257 34.6784 26.3588 34.6242 26.3872C34.3412 26.5647 34.0542 26.7358 33.7635 26.9004C33.7275 26.9206 33.685 26.9257 33.6453 26.9145C33.6057 26.9033 33.572 26.8767 33.5519 26.8407C33.5317 26.8046 33.5266 26.762 33.5378 26.7222C33.549 26.6824 33.5754 26.6486 33.6114 26.6284C33.9297 26.451 34.267 26.2465 34.6018 26.0348C35.1618 25.6327 35.3328 24.818 35.3835 24.4703C35.4472 24.0068 35.1925 23.263 34.5935 22.7924C34.0842 22.3951 33.1009 22.4199 32.5939 22.7072L32.0987 22.9839C31.6836 23.2145 31.2179 23.4711 30.8866 23.6816C30.9632 23.6899 31.0234 23.7526 31.0257 23.8306C31.0293 23.9158 30.9609 23.9879 30.876 23.9902H30.8524C30.4079 23.9902 30.2228 23.6284 30.1863 23.4345C30.1697 23.3493 30.2252 23.2689 30.3101 23.2524C30.3938 23.237 30.4751 23.2914 30.4916 23.3753C30.4952 23.3919 30.5129 23.4723 30.5706 23.5456C30.5824 23.522 30.6013 23.4983 30.6249 23.483C30.9526 23.2666 31.4502 22.991 31.8982 22.7427C32.3345 22.5003 32.4937 21.8133 32.5703 21.4833C32.6906 20.9548 32.4052 19.9059 31.6589 19.395C31.1342 19.0367 30.1025 19.1254 29.5956 19.3489C29.3902 19.4413 29.187 19.5383 28.986 19.6398H28.9848C28.5132 19.8751 27.9508 20.1684 27.5617 20.373L27.4237 20.4439C27.4527 20.4615 27.475 20.4881 27.4874 20.5197C27.4998 20.5513 27.5015 20.586 27.4922 20.6187C27.483 20.6513 27.4633 20.68 27.4363 20.7003C27.4092 20.7207 27.3762 20.7315 27.3424 20.7313L27.3188 20.7301C26.8625 20.658 26.7411 20.2571 26.7411 20.0561C26.741 20.0357 26.7449 20.0156 26.7526 19.9967C26.7603 19.9779 26.7716 19.9608 26.7859 19.9463C26.8002 19.9319 26.8172 19.9204 26.8359 19.9126C26.8546 19.9047 26.8747 19.9006 26.8949 19.9006C26.9152 19.9005 26.9353 19.9044 26.9541 19.9121C26.9729 19.9198 26.9899 19.9312 27.0043 19.9455C27.0187 19.9598 27.0302 19.9769 27.038 19.9956C27.0458 20.0144 27.0499 20.0345 27.05 20.0549C27.05 20.0726 27.0559 20.1779 27.1184 20.2725C27.1325 20.2524 27.1502 20.237 27.1714 20.2252L27.419 20.0951C27.7963 19.8988 28.3304 19.6197 28.7938 19.3868L29.0438 18.6642C29.2124 18.1688 29.0697 17.5373 28.6877 17.0915C28.3033 16.6422 27.8058 16.4139 27.2799 16.4258C27.5959 16.544 27.9449 16.7699 28.2762 17.1826C28.2969 17.215 28.3049 17.2541 28.2987 17.2921C28.2924 17.3301 28.2723 17.3645 28.2423 17.3886C28.2123 17.4126 28.1745 17.4247 28.1361 17.4225C28.0977 17.4203 28.0615 17.4039 28.0345 17.3765C27.2976 16.4541 26.5171 16.6268 26.4098 16.6552C26.3767 16.6729 26.339 16.6883 26.2977 16.7096C26.6079 16.7298 26.9094 16.8209 27.1791 16.9758C27.4489 17.1307 27.6797 17.3454 27.8541 17.6035C27.8701 17.6268 27.8796 17.6541 27.8813 17.6823C27.8831 17.7106 27.8772 17.7388 27.8643 17.7639C27.8513 17.7891 27.8318 17.8102 27.8078 17.8251C27.7838 17.8399 27.7562 17.848 27.7279 17.8483C27.6796 17.8483 27.6324 17.8247 27.6018 17.7833C26.8118 16.6646 25.542 17.0773 25.4488 17.1093C24.7861 17.4242 24.125 17.7427 23.4657 18.0647C23.5553 18.0706 23.6449 18.0825 23.731 18.1014C24.2321 18.2125 24.6046 18.5389 24.7815 19.0202C24.7903 19.0436 24.7933 19.0688 24.7902 19.0936C24.7871 19.1184 24.7781 19.1421 24.7638 19.1626C24.7495 19.1832 24.7304 19.1999 24.7082 19.2113C24.686 19.2227 24.6614 19.2286 24.6365 19.2283C24.5728 19.2283 24.515 19.1893 24.4903 19.1266C24.4273 18.9441 24.3178 18.7814 24.1725 18.6546C24.0273 18.5278 23.8515 18.4415 23.6626 18.4041C23.1862 18.2977 22.5896 18.4502 22.2772 18.7588C22.2642 18.7707 22.2501 18.7801 22.2336 18.7884C21.9683 19.019 21.6653 19.3205 21.3705 19.615C21.1099 19.8751 20.8399 20.1436 20.5841 20.3753C19.8743 21.0198 19.3331 21.7116 19.0596 22.3206C19.0423 22.3579 19.0112 22.387 18.9729 22.4016C18.9345 22.4161 18.892 22.4151 18.8544 22.3986C18.8358 22.3904 18.819 22.3786 18.805 22.3638C18.791 22.3491 18.7801 22.3317 18.7728 22.3126C18.7656 22.2936 18.7622 22.2733 18.7628 22.253C18.7635 22.2326 18.7682 22.2126 18.7766 22.194C19.069 21.5366 19.6231 20.827 20.3754 20.1447L20.3895 20.1306C20.1926 20.1743 19.9651 20.2086 19.7245 20.2086C19.3979 20.2086 19.0478 20.1471 18.7235 19.9697C18.7057 19.96 18.69 19.9469 18.6773 19.9311C18.6645 19.9153 18.655 19.8971 18.6492 19.8776C18.6435 19.8582 18.6416 19.8377 18.6438 19.8175C18.6459 19.7973 18.652 19.7777 18.6616 19.7598C18.6713 19.742 18.6844 19.7262 18.7002 19.7134C18.7159 19.7006 18.734 19.6911 18.7535 19.6853C18.7729 19.6796 18.7933 19.6777 18.8134 19.6798C18.8336 19.682 18.8531 19.6881 18.8709 19.6978C19.2435 19.9023 19.668 19.9213 20.0335 19.8751C19.8 19.7841 19.5618 19.6126 19.3602 19.304C19.0501 18.8357 18.2047 16.9035 17.9854 16.0911C17.8625 16.2412 17.6903 16.3427 17.4997 16.3773C17.4616 16.3775 17.4248 16.3637 17.3962 16.3386C17.3676 16.3135 17.3492 16.2787 17.3444 16.2408C17.3396 16.203 17.3488 16.1647 17.3702 16.1332C17.3917 16.1017 17.4239 16.0791 17.4608 16.0698C17.956 15.9433 17.8876 15.3568 17.8852 15.3331V15.3308C17.8152 14.9805 17.6928 14.6428 17.5221 14.3292C17.4089 14.1329 17.2745 13.9082 17.1094 13.6504C17.0658 13.5854 17.0245 13.5204 16.9738 13.4541C15.5106 11.432 13.1584 11.0182 12.6231 11.082C12.1374 11.1388 11.8591 11.6165 11.8461 11.6378C11.832 11.6638 11.7612 11.8034 11.7648 11.9926C11.8613 11.9122 11.9751 11.8555 12.0973 11.827C12.3861 11.7631 12.7033 11.8589 13.0429 12.1167C13.7267 12.637 13.8835 13.5582 13.801 14.2476V14.2547C13.7986 14.2618 13.7963 14.2724 13.7927 14.2783V14.2819C13.768 14.4332 14.0592 15.0978 14.3551 15.6039C14.3622 15.6122 14.3669 15.6217 14.3717 15.6311C14.3717 15.6311 14.3717 15.6335 14.374 15.6347L14.3952 15.6713C14.4483 15.7517 14.5921 15.9114 14.8845 15.883C14.9055 15.8793 14.927 15.88 14.9477 15.885C14.9684 15.8901 14.9879 15.8993 15.0048 15.9123C15.0218 15.9252 15.0359 15.9415 15.0462 15.9602C15.0566 15.9789 15.063 15.9995 15.065 16.0207C15.0671 16.042 15.0647 16.0635 15.0581 16.0838C15.0515 16.1041 15.0407 16.1228 15.0265 16.1387C15.0123 16.1546 14.995 16.1675 14.9757 16.1764C14.9563 16.1853 14.9353 16.1901 14.914 16.1904C14.8395 16.1988 14.7642 16.1976 14.69 16.1869C14.723 16.285 14.7548 16.3998 14.7831 16.5251C14.8928 16.5724 15.1781 16.6694 15.638 16.6173C15.6776 16.6146 15.7168 16.6273 15.7473 16.6527C15.7779 16.6782 15.7975 16.7145 15.8021 16.7541C15.8066 16.7937 15.7958 16.8335 15.7718 16.8653C15.7478 16.8971 15.7126 16.9184 15.6733 16.9248C15.5672 16.9378 15.4682 16.9437 15.3786 16.9437C15.1545 16.9437 14.98 16.9118 14.848 16.8751C15.0249 18.0221 15.019 19.7285 15.0178 19.9827C15.006 21.4762 15.0201 22.0462 15.3644 23.1282C15.5413 23.6793 15.7806 24.3225 15.994 24.8901C16.2122 25.4755 16.402 25.9804 16.4892 26.2961C16.6684 26.9453 17.087 28.4542 16.9019 30.1003C16.876 30.3226 16.8583 30.5378 16.8418 30.7447C16.7415 31.9863 16.6531 33.0719 15.0531 34.809C15.151 34.8161 15.2583 34.8326 15.3703 34.861L15.3715 34.8575L16.3902 33.6549C16.4032 33.6392 16.4193 33.6262 16.4374 33.6168C16.4555 33.6074 16.4752 33.6017 16.4955 33.6001C16.5158 33.5984 16.5363 33.6008 16.5556 33.6072C16.575 33.6136 16.5929 33.6237 16.6083 33.6371C16.6732 33.6927 16.6814 33.7908 16.626 33.8571L15.6946 34.9556C17.0257 35.4168 18.9558 36.8275 19.892 37.6695C19.9273 37.7014 22.9245 40.4164 23.3454 41.852C23.4079 41.7657 23.4775 41.6687 23.5541 41.5658C23.5588 41.5528 23.5635 41.5386 23.573 41.5256C23.8041 41.1791 23.1391 40.1468 22.5944 39.6466C22.5791 39.6329 22.5667 39.6163 22.558 39.5978C22.5492 39.5792 22.5443 39.5591 22.5434 39.5386C22.5425 39.5181 22.5457 39.4977 22.5529 39.4784C22.56 39.4592 22.5709 39.4416 22.5849 39.4267C22.5986 39.4114 22.6151 39.399 22.6336 39.3902C22.6521 39.3814 22.6721 39.3764 22.6926 39.3756C22.713 39.3747 22.7334 39.3779 22.7526 39.3851C22.7718 39.3922 22.7893 39.4031 22.8042 39.4172C23.1155 39.7046 23.7616 40.472 23.9031 41.1058C23.9797 41.0041 24.0611 40.9012 24.1436 40.7936C24.2144 40.686 24.2662 40.4874 23.9055 40.0179C23.8841 39.985 23.8759 39.9451 23.8826 39.9064C23.8892 39.8676 23.9102 39.8328 23.9414 39.8089C23.9725 39.785 24.0115 39.7738 24.0505 39.7775C24.0895 39.7811 24.1257 39.7994 24.1519 39.8287C24.2698 39.9836 24.403 40.1776 24.4655 40.3845C25.1187 39.5603 25.8273 38.7183 26.1834 38.4121C26.9686 37.7404 27.5865 37.5287 28.8233 37.1113L28.8999 37.0853C29.8031 36.7743 30.9951 35.2666 31.9537 34.0557ZM40.997 23.0383C41.0795 23.0182 41.162 23.0679 41.1833 23.1507C41.1844 23.1578 41.2599 23.4203 41.5936 23.7112C41.6584 23.7679 41.6643 23.8649 41.6089 23.9299C41.5771 23.9654 41.5358 23.9832 41.4922 23.9832C41.4568 23.9832 41.4214 23.9713 41.3908 23.9453C40.9746 23.5823 40.8861 23.2417 40.8838 23.2264C40.8626 23.1424 40.9133 23.0584 40.997 23.0372V23.0383ZM17.4938 30.8381C17.4901 30.8586 17.4824 30.8781 17.4711 30.8955C17.4597 30.913 17.445 30.9279 17.4278 30.9395C17.4106 30.9511 17.3912 30.9591 17.3709 30.963C17.3505 30.9669 17.3296 30.9667 17.3093 30.9623C17.289 30.958 17.2698 30.9495 17.2529 30.9376C17.2359 30.9256 17.2215 30.9104 17.2106 30.8927C17.1996 30.875 17.1923 30.8553 17.1891 30.8348C17.1859 30.8142 17.1869 30.7933 17.1919 30.7731C17.4141 29.6748 17.4153 28.5431 17.1955 27.4443C17.1719 27.3639 17.2155 27.2752 17.2969 27.2516C17.3355 27.2389 17.3776 27.2421 17.4138 27.2605C17.4501 27.2789 17.4776 27.311 17.4902 27.3497C17.4938 27.3616 17.8876 28.9875 17.4938 30.8381ZM36.1145 29.3754C35.9648 29.4913 33.2188 31.8941 32.6434 32.6497C32.6312 32.666 32.616 32.6796 32.5985 32.6899C32.581 32.7002 32.5617 32.7069 32.5417 32.7096C32.5216 32.7124 32.5012 32.7111 32.4816 32.7059C32.462 32.7007 32.4437 32.6917 32.4276 32.6793C32.3951 32.6542 32.3738 32.6173 32.3683 32.5766C32.3628 32.5358 32.3735 32.4946 32.3982 32.4617C32.72 32.0372 33.655 31.1586 34.3825 30.494C34.3978 30.481 35.8822 29.133 35.9778 29.0987C36.0579 29.0691 36.1475 29.1129 36.177 29.1933C36.2006 29.2619 36.1723 29.3375 36.1145 29.3754ZM37.6426 25.1621C37.667 25.1293 37.7033 25.1075 37.7437 25.1013C37.7841 25.0951 37.8252 25.105 37.8583 25.129C37.8819 25.1456 38.4314 25.5547 38.7874 26.4771C38.7947 26.496 38.7982 26.5162 38.7977 26.5365C38.7972 26.5568 38.7927 26.5768 38.7845 26.5953C38.7763 26.6139 38.7645 26.6307 38.7498 26.6446C38.7352 26.6586 38.7179 26.6696 38.699 26.6769C38.6801 26.6842 38.66 26.6877 38.6397 26.6872C38.6195 26.6867 38.5996 26.6822 38.5811 26.6739C38.5626 26.6657 38.5458 26.6539 38.5319 26.6392C38.5179 26.6245 38.507 26.6072 38.4997 26.5882C38.1767 25.7522 37.6815 25.3821 37.6779 25.3785C37.6612 25.3669 37.6469 25.3519 37.636 25.3346C37.6251 25.3173 37.6178 25.298 37.6145 25.2778C37.6112 25.2576 37.612 25.237 37.6168 25.2171C37.6216 25.1972 37.6304 25.1785 37.6426 25.1621ZM37.5129 25.7203C37.5283 25.7069 37.5463 25.6969 37.5657 25.6906C37.5851 25.6843 37.6056 25.682 37.6259 25.6838C37.6462 25.6855 37.666 25.6913 37.684 25.7008C37.7021 25.7104 37.718 25.7234 37.731 25.7392L38.2922 26.4132C38.3109 26.4359 38.3228 26.4634 38.3265 26.4926C38.3303 26.5218 38.3257 26.5514 38.3134 26.5781C38.3011 26.6048 38.2815 26.6275 38.2569 26.6435C38.2323 26.6595 38.2037 26.6682 38.1743 26.6686C38.1307 26.6686 38.0871 26.6497 38.0564 26.613L37.494 25.939C37.4807 25.9235 37.4707 25.9055 37.4644 25.886C37.4582 25.8666 37.4559 25.846 37.4576 25.8257C37.4594 25.8053 37.4652 25.7855 37.4747 25.7674C37.4841 25.7493 37.4971 25.7333 37.5129 25.7203ZM37.0825 25.4329H37.0872C37.1698 25.4329 37.2393 25.4991 37.2405 25.5831C37.2405 25.5914 37.2712 26.3245 37.9196 26.8436C37.9517 26.8693 37.9723 26.9068 37.9768 26.9477C37.9813 26.9886 37.9695 27.0297 37.9438 27.0618C37.9182 27.094 37.8809 27.1146 37.8401 27.1191C37.7993 27.1237 37.7583 27.1118 37.7263 27.086C37.4979 26.9056 37.3094 26.6796 37.1726 26.4223C37.0358 26.165 36.9538 25.8821 36.9316 25.5914C36.931 25.5504 36.9464 25.5108 36.9747 25.4811C37.0029 25.4515 37.0417 25.4341 37.0825 25.4329ZM34.307 27.4763C34.32 27.4607 34.3359 27.4478 34.3538 27.4384C34.3718 27.429 34.3914 27.4232 34.4116 27.4215C34.4317 27.4197 34.4521 27.422 34.4714 27.4281C34.4907 27.4343 34.5085 27.4442 34.524 27.4574C34.5711 27.4964 34.6148 27.5378 34.6549 27.5792L35.0475 27.319C35.0211 27.2876 35.0081 27.247 35.0116 27.2061C35.015 27.1652 35.0345 27.1273 35.0658 27.1008C35.097 27.0743 35.1375 27.0614 35.1783 27.0648C35.2191 27.0682 35.2569 27.0878 35.2833 27.1192L35.3069 27.1464L35.7396 26.8614C35.703 26.8259 35.6806 26.8046 35.6806 26.8022C35.6511 26.774 35.6338 26.7352 35.6325 26.6943C35.6311 26.6534 35.6459 26.6136 35.6736 26.5835C35.7313 26.5208 35.8292 26.5184 35.8917 26.5764C35.9105 26.5941 36.3657 27.0257 36.5991 27.4325C36.638 27.5023 36.6192 27.591 36.5543 27.6371L36.2159 27.8771C36.1993 27.8889 36.1805 27.8973 36.1607 27.9018C36.1408 27.9062 36.1202 27.9067 36.1002 27.9032C36.0801 27.8997 36.061 27.8922 36.0438 27.8813C36.0266 27.8703 36.0118 27.856 36.0002 27.8393C35.9506 27.7684 35.9671 27.6726 36.0379 27.6217L36.2572 27.468C36.1656 27.3355 36.0656 27.2091 35.9577 27.0896L35.512 27.3852L35.5745 27.4585L35.6005 27.4384C35.6333 27.417 35.673 27.4088 35.7117 27.4155C35.7503 27.4222 35.785 27.4432 35.8088 27.4744C35.8326 27.5057 35.8439 27.5447 35.8402 27.5839C35.8365 27.623 35.8183 27.6593 35.7891 27.6856L35.5215 27.8925C35.5054 27.9051 35.4871 27.9144 35.4674 27.9198C35.4478 27.9252 35.4272 27.9266 35.407 27.924C35.3868 27.9213 35.3674 27.9147 35.3498 27.9044C35.3322 27.8941 35.3168 27.8804 35.3045 27.8641C35.2797 27.8325 35.2683 27.7923 35.2727 27.7523C35.2771 27.7123 35.297 27.6756 35.3281 27.6501L35.2515 27.559L34.847 27.8275C34.8718 27.8689 34.8954 27.9103 34.9178 27.9552C34.9532 28.0332 34.9213 28.1255 34.8423 28.1621C34.8211 28.1728 34.7999 28.1763 34.7763 28.1763C34.7185 28.1763 34.6631 28.1444 34.636 28.0876C34.5637 27.9349 34.4581 27.8003 34.3271 27.6939C34.2957 27.6676 34.276 27.63 34.2723 27.5892C34.2685 27.5484 34.281 27.5078 34.307 27.4763ZM34.162 29.4984C34.2351 29.5421 34.2599 29.6379 34.2163 29.7112C34.2027 29.7343 34.1834 29.7534 34.1602 29.7666C34.1371 29.7799 34.1109 29.7869 34.0842 29.7869C34.0571 29.7869 34.03 29.7798 34.004 29.7656C33.6671 29.5714 33.4004 29.2749 33.2424 28.9189C33.2105 28.8397 33.2471 28.7498 33.3249 28.7155C33.3436 28.7074 33.3637 28.7031 33.3841 28.7029C33.4045 28.7026 33.4247 28.7065 33.4436 28.7142C33.4625 28.7219 33.4797 28.7333 33.4941 28.7478C33.5085 28.7622 33.52 28.7794 33.5277 28.7983C33.6597 29.0933 33.8818 29.3384 34.162 29.4984ZM34.4403 23.3363C34.5028 23.2772 34.6006 23.2807 34.6596 23.3434C34.6902 23.3765 35.4271 24.1865 34.7539 25.4246C34.7441 25.4426 34.7309 25.4586 34.7151 25.4715C34.6992 25.4843 34.6809 25.494 34.6613 25.4998C34.6417 25.5056 34.6212 25.5075 34.6008 25.5054C34.5805 25.5032 34.5608 25.4971 34.5428 25.4873C34.525 25.4777 34.5092 25.4647 34.4963 25.449C34.4835 25.4333 34.4739 25.4152 34.4681 25.3957C34.4623 25.3763 34.4604 25.3558 34.4625 25.3356C34.4646 25.3154 34.4707 25.2958 34.4804 25.278C35.0475 24.2362 34.4379 23.5634 34.4332 23.5575C34.4054 23.5269 34.3906 23.4868 34.3919 23.4454C34.3932 23.4041 34.4106 23.365 34.4403 23.3363ZM32.9877 23.0017C33.0136 22.9201 33.0997 22.8728 33.181 22.8988C33.8838 23.1152 34.6242 23.7266 34.3955 24.7352C34.391 24.7554 34.3826 24.7744 34.3707 24.7913C34.3589 24.8081 34.3437 24.8224 34.3263 24.8333C34.3088 24.8442 34.2894 24.8515 34.2691 24.8548C34.2487 24.858 34.228 24.8572 34.208 24.8523C34.1882 24.8478 34.1695 24.8395 34.1529 24.8277C34.1363 24.8159 34.1223 24.801 34.1115 24.7837C34.1008 24.7664 34.0935 24.7472 34.0903 24.7271C34.087 24.707 34.0877 24.6864 34.0924 24.6666C34.32 23.6591 33.3815 23.2843 33.0891 23.1944C33.0698 23.1885 33.0518 23.1788 33.0363 23.1659C33.0207 23.153 33.0079 23.1371 32.9984 23.1192C32.989 23.1013 32.9832 23.0817 32.9814 23.0615C32.9795 23.0413 32.9817 23.021 32.9877 23.0017ZM31.8511 24.7494C31.8599 24.7311 31.8722 24.7147 31.8874 24.7012C31.9026 24.6877 31.9203 24.6773 31.9395 24.6707C31.9587 24.6641 31.979 24.6614 31.9992 24.6627C32.0195 24.6641 32.0392 24.6694 32.0574 24.6785C32.1317 24.7151 32.1942 24.7589 32.2437 24.8062L33.319 24.0919L33.2836 24.0718C33.2468 24.0542 33.2184 24.0227 33.2045 23.9842C33.1906 23.9457 33.1924 23.9033 33.2093 23.8661C33.2178 23.8477 33.2299 23.8313 33.2447 23.8176C33.2596 23.8039 33.277 23.7933 33.2959 23.7864C33.3149 23.7795 33.335 23.7764 33.3551 23.7773C33.3753 23.7781 33.3951 23.783 33.4133 23.7916C33.4286 23.7975 33.7989 23.9761 33.7989 24.345C33.7992 24.3861 33.7832 24.4256 33.7545 24.4549C33.7257 24.4842 33.6866 24.5008 33.6456 24.5011C33.6046 24.5014 33.5652 24.4854 33.536 24.4566C33.5068 24.4277 33.4903 24.3884 33.49 24.3474L32.4229 25.0557C32.45 25.1124 32.4701 25.1692 32.4842 25.2177C32.496 25.2572 32.4915 25.2998 32.472 25.336C32.4524 25.3723 32.4193 25.3993 32.3799 25.411C32.3405 25.4228 32.298 25.4184 32.2619 25.3987C32.2257 25.3791 32.1988 25.3459 32.1871 25.3064C32.134 25.1266 32.0539 25.0226 31.9159 24.9564C31.8452 24.9209 31.8133 24.8263 31.8511 24.7494ZM30.4079 25.0651C30.9043 25.0533 31.482 25.3761 31.785 25.8279C31.9127 26.0116 31.9908 26.2253 32.0119 26.4482C32.033 26.6711 31.9963 26.8957 31.9053 27.1002C31.8892 27.138 31.8589 27.1679 31.8209 27.1834C31.7829 27.1989 31.7404 27.1988 31.7025 27.183C31.6836 27.1752 31.6665 27.1636 31.6521 27.149C31.6377 27.1344 31.6264 27.117 31.6188 27.0979C31.6112 27.0789 31.6075 27.0585 31.6079 27.0379C31.6083 27.0174 31.6128 26.9972 31.6212 26.9784C31.6925 26.8217 31.7214 26.649 31.705 26.4776C31.6887 26.3061 31.6276 26.142 31.528 26.0017C31.284 25.6387 30.8029 25.3679 30.4126 25.3761H30.4103C30.37 25.3761 30.3314 25.3603 30.3027 25.332C30.274 25.3036 30.2576 25.2651 30.257 25.2248C30.2562 25.2043 30.2595 25.1839 30.2667 25.1647C30.2739 25.1455 30.2849 25.128 30.2989 25.1131C30.313 25.0982 30.3299 25.0863 30.3486 25.0781C30.3673 25.0698 30.3875 25.0654 30.4079 25.0651ZM30.2959 26.1495C30.3003 26.1296 30.3086 26.1108 30.3203 26.0941C30.3319 26.0775 30.3467 26.0633 30.3639 26.0523C30.381 26.0414 30.4001 26.034 30.4201 26.0305C30.4401 26.027 30.4606 26.0274 30.4804 26.0318C30.5002 26.0363 30.519 26.0446 30.5356 26.0563C30.5522 26.068 30.5664 26.0828 30.5773 26.1C30.5882 26.1172 30.5956 26.1364 30.5991 26.1564C30.6026 26.1765 30.6022 26.197 30.5977 26.2169C30.5942 26.2346 30.5022 26.6379 30.2535 27.0447C30.232 27.0795 30.1977 27.1046 30.158 27.1143C30.1183 27.124 30.0763 27.1177 30.0412 27.0967C30.0238 27.0862 30.0086 27.0724 29.9965 27.056C29.9844 27.0396 29.9757 27.021 29.9708 27.0012C29.966 26.9814 29.9652 26.9608 29.9683 26.9406C29.9715 26.9205 29.9787 26.9012 29.9894 26.8838C30.2098 26.522 30.2947 26.1542 30.2959 26.1507V26.1495ZM31.2863 19.7297C31.3151 19.7156 31.3476 19.7107 31.3792 19.7158C31.4109 19.7209 31.4402 19.7356 31.4632 19.7581L31.475 19.7663C32.0845 20.2192 32.1612 20.8495 32.1175 21.2989C32.1105 21.3781 32.0421 21.4396 31.9643 21.4396L31.9489 21.4384C31.9083 21.4342 31.871 21.4141 31.8452 21.3824C31.8193 21.3507 31.807 21.3101 31.811 21.2693C31.8464 20.8992 31.7851 20.3824 31.291 20.0159C31.2592 19.9922 31.2356 19.9733 31.2167 19.9378C31.2075 19.9195 31.202 19.8996 31.2006 19.8791C31.1992 19.8587 31.2018 19.8382 31.2084 19.8188C31.215 19.7994 31.2254 19.7815 31.239 19.7662C31.2526 19.7509 31.2691 19.7385 31.2875 19.7297H31.2863ZM29.6073 19.6315C29.625 19.5488 29.7017 19.4967 29.7842 19.5097H29.8078C30.6496 19.5724 31.2486 20.0088 31.4962 20.7395C31.5043 20.763 31.5067 20.7881 31.5031 20.8127C31.4996 20.8372 31.4902 20.8606 31.4757 20.8808C31.4613 20.901 31.4422 20.9173 31.4201 20.9286C31.398 20.9398 31.3736 20.9455 31.3488 20.9453C31.284 20.9453 31.2238 20.9051 31.2014 20.8389C30.9397 20.0632 30.2865 19.8562 29.783 19.8196C29.7637 19.8189 29.7444 19.8169 29.7252 19.8136C29.6856 19.8051 29.6509 19.7812 29.6288 19.747C29.6067 19.7129 29.599 19.6714 29.6073 19.6315ZM27.0653 21.3012C27.6065 21.2906 28.2444 21.643 28.5745 22.1373C28.7144 22.3384 28.7999 22.5724 28.8226 22.8166C28.8453 23.0607 28.8045 23.3066 28.7042 23.5303C28.6861 23.5647 28.6557 23.5911 28.6191 23.6041C28.5825 23.6171 28.5423 23.6157 28.5066 23.6004C28.471 23.585 28.4423 23.5567 28.4265 23.5212C28.4107 23.4856 28.4088 23.4454 28.4212 23.4085C28.5006 23.2323 28.5327 23.0384 28.5145 22.846C28.4963 22.6535 28.4284 22.4692 28.3175 22.3111C28.0451 21.9043 27.5086 21.604 27.07 21.6122C27.0496 21.6129 27.0293 21.6094 27.0102 21.602C26.9911 21.5947 26.9737 21.5835 26.959 21.5693C26.9443 21.5551 26.9325 21.5381 26.9245 21.5193C26.9164 21.5004 26.9122 21.4802 26.912 21.4597C26.9117 21.4392 26.9154 21.4188 26.923 21.3998C26.9305 21.3807 26.9417 21.3633 26.9559 21.3486C26.9702 21.3339 26.9872 21.3221 27.0059 21.314C27.0247 21.3059 27.0449 21.3015 27.0653 21.3012ZM27.0901 22.3631C27.0946 22.3432 27.1029 22.3243 27.1147 22.3076C27.1265 22.2909 27.1414 22.2766 27.1586 22.2657C27.1759 22.2548 27.1951 22.2474 27.2152 22.2439C27.2353 22.2404 27.2559 22.241 27.2758 22.2455C27.2957 22.25 27.3145 22.2584 27.3311 22.2702C27.3478 22.2819 27.362 22.2969 27.3729 22.3142C27.3838 22.3315 27.3912 22.3508 27.3946 22.3709C27.3981 22.3911 27.3976 22.4118 27.3931 22.4317C27.386 22.4636 27.2068 23.2512 26.6562 23.736C26.6255 23.762 26.589 23.775 26.5524 23.775C26.5211 23.7747 26.4906 23.7649 26.4649 23.7469C26.4393 23.7289 26.4196 23.7036 26.4085 23.6742C26.3975 23.6448 26.3955 23.6127 26.4028 23.5822C26.4102 23.5517 26.4266 23.5241 26.4498 23.5031C26.9238 23.0845 27.0889 22.3702 27.0901 22.3631ZM24.8852 18.073C24.9053 18.0373 24.9387 18.011 24.978 18C25.0173 17.9889 25.0595 17.9939 25.0951 18.0139C25.1328 18.0375 25.1777 18.0624 25.2284 18.0955L26.4475 17.5964C26.4107 17.5838 26.38 17.5578 26.3615 17.5235C26.343 17.4891 26.3381 17.4491 26.3478 17.4113C26.3575 17.3735 26.381 17.3408 26.4137 17.3196C26.4464 17.2985 26.4858 17.2905 26.5241 17.2973C26.5607 17.3032 26.8814 17.3647 27.0936 17.6296C27.1114 17.6525 27.1225 17.68 27.1255 17.709C27.1285 17.7379 27.1235 17.7671 27.1108 17.7933C27.0982 17.8195 27.0785 17.8416 27.054 17.8572C27.0295 17.8728 27.0012 17.8812 26.9722 17.8814C26.925 17.8814 26.8814 17.8613 26.8495 17.8235C26.8378 17.8093 26.8248 17.7939 26.8106 17.7809L26.3119 17.9855C26.4003 18.0505 26.5053 18.1286 26.5949 18.2031C26.6691 18.2539 27.0512 18.196 27.3943 18.0848C27.4756 18.06 27.5629 18.1049 27.5888 18.1853C27.5952 18.2047 27.5977 18.2252 27.5961 18.2456C27.5945 18.266 27.5889 18.2858 27.5795 18.304C27.5702 18.3222 27.5574 18.3383 27.5417 18.3514C27.5261 18.3645 27.5081 18.3744 27.4886 18.3804C27.2375 18.462 26.6279 18.6323 26.398 18.4431C26.3258 18.3846 26.2523 18.3279 26.1775 18.2728L26.1504 18.9114C26.1916 18.9634 26.2305 19.0178 26.2636 19.071C26.279 19.0943 26.2878 19.1214 26.2891 19.1494C26.2903 19.1774 26.2839 19.2051 26.2706 19.2297C26.2572 19.2543 26.2374 19.2747 26.2133 19.2889C26.1892 19.303 26.1618 19.3103 26.1339 19.3099C26.082 19.3099 26.0336 19.2862 26.0042 19.2389C25.9106 19.0949 25.8014 18.9617 25.6787 18.8416C25.6514 18.8164 25.6341 18.7821 25.6302 18.745C25.6262 18.708 25.6357 18.6707 25.6571 18.6402C25.6784 18.6097 25.71 18.588 25.7461 18.5792C25.7822 18.5703 25.8203 18.5749 25.8532 18.5921L25.8709 18.1652L25.529 18.3048C25.5868 18.358 25.5962 18.4467 25.5491 18.5117C25.5172 18.5531 25.4712 18.5744 25.4241 18.5744C25.3922 18.5744 25.3592 18.5649 25.3321 18.5436C25.1753 18.4254 25.0314 18.3379 24.9395 18.2835C24.9047 18.2625 24.8795 18.2288 24.8692 18.1895C24.8588 18.1502 24.8642 18.1084 24.8841 18.073H24.8852ZM25.3333 25.686C25.3502 25.6485 25.3812 25.6193 25.4196 25.6047C25.4579 25.5902 25.5005 25.5916 25.5379 25.6085C25.5752 25.6254 25.6043 25.6566 25.6188 25.695C25.6333 25.7335 25.632 25.7762 25.6151 25.8137C25.6056 25.8338 24.719 27.7908 23.4103 30.0648C23.4002 30.0824 23.3868 30.0978 23.3709 30.1102C23.3549 30.1226 23.3366 30.1316 23.3171 30.1369C23.2976 30.1422 23.2772 30.1436 23.2572 30.1409C23.2372 30.1383 23.2179 30.1317 23.2004 30.1215C23.1828 30.1114 23.1674 30.0978 23.155 30.0817C23.1427 30.0655 23.1336 30.0471 23.1284 30.0275C23.1231 30.0078 23.1218 29.9873 23.1244 29.9671C23.1271 29.9469 23.1336 29.9275 23.1438 29.9099C24.4443 27.6477 25.3227 25.7049 25.3321 25.686H25.3333ZM22.1876 20.004C22.3456 19.5358 22.8148 19.0781 22.8349 19.058C22.8494 19.0438 22.8665 19.0325 22.8854 19.025C22.9042 19.0175 22.9244 19.0137 22.9447 19.0141C22.965 19.0144 22.985 19.0188 23.0036 19.0269C23.0222 19.0351 23.039 19.0469 23.053 19.0616C23.112 19.1231 23.112 19.2224 23.0495 19.2815C23.0459 19.2851 22.6144 19.7072 22.4812 20.1034C22.4748 20.1228 22.4646 20.1409 22.4512 20.1564C22.4378 20.1719 22.4215 20.1846 22.4032 20.1937C22.3849 20.2028 22.3649 20.2082 22.3445 20.2096C22.3241 20.2109 22.3036 20.2082 22.2843 20.2015C22.2456 20.1878 22.2138 20.1595 22.1958 20.1225C22.1777 20.0856 22.1748 20.0431 22.1876 20.004ZM21.4306 24.1511C22.6899 23.6473 23.2876 22.5393 23.343 22.3702C23.3489 22.3341 23.3675 22.3013 23.3954 22.2776C23.4233 22.254 23.4586 22.2411 23.4951 22.2413H23.4963C23.5812 22.2413 23.6496 22.3123 23.6496 22.3974C23.6496 22.5417 22.9964 23.859 21.545 24.4384C21.5262 24.4464 21.5061 24.4505 21.4857 24.4505C21.4653 24.4505 21.4451 24.4463 21.4264 24.4382C21.4077 24.4301 21.3907 24.4184 21.3767 24.4036C21.3626 24.3888 21.3517 24.3712 21.3446 24.3521C21.3369 24.3332 21.3331 24.3131 21.3333 24.2927C21.3335 24.2724 21.3377 24.2522 21.3457 24.2335C21.3537 24.2148 21.3653 24.1979 21.3799 24.1838C21.3945 24.1696 21.4117 24.1585 21.4306 24.1511ZM19.3791 34.9142C19.3647 34.9342 19.3457 34.9505 19.3238 34.9616C19.3018 34.9727 19.2775 34.9784 19.2529 34.9781C19.2244 34.9778 19.1965 34.9697 19.1723 34.9546C19.1481 34.9396 19.1284 34.9181 19.1155 34.8926C19.1027 34.8671 19.097 34.8385 19.0992 34.81C19.1014 34.7815 19.1113 34.7542 19.1279 34.7309C21.2974 31.751 21.5922 27.222 21.5945 27.1771C21.597 27.136 21.6157 27.0976 21.6464 27.0703C21.6772 27.0431 21.7174 27.0291 21.7584 27.0317C21.7994 27.0342 21.8377 27.0529 21.8649 27.0837C21.8921 27.1145 21.9059 27.1549 21.9034 27.196C21.9023 27.2421 21.6016 31.8598 19.3791 34.9142ZM20.241 34.7309C20.2279 34.7466 20.2119 34.7595 20.1939 34.7689C20.1758 34.7783 20.1561 34.7841 20.1358 34.7859C20.1156 34.7876 20.0951 34.7853 20.0758 34.7792C20.0564 34.773 20.0384 34.763 20.0228 34.7499C20.0072 34.7368 19.9943 34.7207 19.9849 34.7025C19.9755 34.6844 19.9699 34.6646 19.9682 34.6442C19.9666 34.6238 19.969 34.6033 19.9753 34.5839C19.9817 34.5645 19.9918 34.5465 20.0052 34.5311C20.7294 33.658 21.3977 32.7397 22.006 31.7818C22.052 31.7096 22.1475 31.6895 22.2206 31.7345C22.2913 31.7818 22.3126 31.8764 22.2666 31.9497C21.6509 32.9189 20.9743 33.8479 20.241 34.7309ZM26.4109 32.6852C26.3968 32.6947 24.9253 33.714 23.5989 35.7715C23.5769 35.806 23.542 35.8303 23.5021 35.8391C23.4622 35.8479 23.4205 35.8404 23.3861 35.8183C23.3517 35.7961 23.3275 35.7612 23.3187 35.7212C23.31 35.6812 23.3175 35.6393 23.3395 35.6048C24.7001 33.4881 26.1751 32.4712 26.2364 32.4286C26.2532 32.4168 26.2721 32.4084 26.292 32.4041C26.312 32.3997 26.3327 32.3993 26.3528 32.4031C26.3729 32.4068 26.392 32.4146 26.4091 32.4259C26.4262 32.4372 26.4408 32.4518 26.4522 32.4688C26.4994 32.5398 26.4829 32.6355 26.4109 32.6852ZM28.0899 29.5504C28.0781 29.593 28.0675 29.6426 27.4497 30.2244C26.9442 30.696 26.4268 31.1545 25.8981 31.5997C24.7438 32.574 22.9917 33.9493 21.196 34.971C21.1724 34.9852 21.1453 34.9923 21.1205 34.9923C21.0864 34.9924 21.0531 34.9812 21.026 34.9603C20.9989 34.9395 20.9795 34.9102 20.9707 34.8771C20.9619 34.844 20.9644 34.8089 20.9776 34.7773C20.9909 34.7457 21.0142 34.7194 21.0439 34.7026C24.2344 32.8839 27.5499 29.7561 27.8034 29.4404C27.816 29.4165 27.8346 29.3962 27.8573 29.3818C27.8801 29.3673 27.9063 29.359 27.9332 29.3578C27.9602 29.3566 27.987 29.3625 28.011 29.3749C28.0349 29.3874 28.0552 29.4059 28.0699 29.4286C28.0911 29.4641 28.0993 29.5078 28.0899 29.5504ZM29.0308 36.5898C28.845 36.7239 28.637 36.8239 28.4165 36.8855L28.3811 36.8878C28.3464 36.8879 28.3126 36.8761 28.2854 36.8544C28.2582 36.8327 28.2391 36.8024 28.2314 36.7684C28.2267 36.7486 28.2259 36.728 28.2292 36.708C28.2325 36.6879 28.2397 36.6686 28.2505 36.6513C28.2612 36.6341 28.2753 36.6191 28.2918 36.6073C28.3084 36.5956 28.3271 36.5872 28.3469 36.5827C28.4884 36.5496 28.6606 36.4657 28.8586 36.3332C28.8927 36.3103 28.9345 36.302 28.9747 36.3099C29.015 36.3179 29.0504 36.3416 29.0732 36.3758C29.0961 36.41 29.1044 36.4519 29.0965 36.4922C29.0885 36.5326 29.0649 36.5681 29.0308 36.591V36.5898ZM29.5024 22.388C29.48 22.3998 29.4576 22.4033 29.4352 22.4033C29.3774 22.4033 29.322 22.3702 29.2961 22.3146C29.2208 22.1598 29.1291 22.0135 29.0225 21.8783C29.0101 21.8622 29.0009 21.8438 28.9955 21.8242C28.9901 21.8046 28.9886 21.7841 28.9912 21.7639C28.9937 21.7437 29.0001 21.7242 29.0102 21.7065C29.0202 21.6888 29.0336 21.6732 29.0497 21.6607C29.0657 21.6482 29.084 21.639 29.1036 21.6336C29.1232 21.6282 29.1436 21.6267 29.1637 21.6293C29.1839 21.6318 29.2033 21.6383 29.221 21.6483C29.2386 21.6584 29.2541 21.6718 29.2666 21.6879C29.3055 21.7376 29.3409 21.7872 29.3762 21.8381C29.4635 21.7908 29.5802 21.7317 29.7017 21.6607C29.6121 21.3663 29.3621 21.131 29.2442 21.0316L28.8858 21.2729L28.9306 21.3154C28.9452 21.3294 28.9569 21.3461 28.9651 21.3647C28.9733 21.3832 28.9778 21.4031 28.9783 21.4234C28.9788 21.4437 28.9753 21.4638 28.968 21.4827C28.9607 21.5016 28.9498 21.5189 28.9359 21.5336C28.9219 21.5483 28.9053 21.56 28.8868 21.5683C28.8683 21.5765 28.8484 21.5809 28.8282 21.5814C28.808 21.5819 28.7879 21.5784 28.7691 21.5711C28.7502 21.5638 28.733 21.5529 28.7183 21.5389C28.6044 21.4299 28.4839 21.328 28.3575 21.2338C28.325 21.2091 28.3035 21.1726 28.2975 21.1322C28.2916 21.0917 28.3017 21.0505 28.3257 21.0174C28.3377 21.001 28.3528 20.9872 28.3702 20.9767C28.3876 20.9662 28.4069 20.9592 28.4269 20.9563C28.447 20.9533 28.4675 20.9543 28.4871 20.9594C28.5068 20.9644 28.5253 20.9733 28.5415 20.9855L28.6441 21.0647C28.8622 20.9134 29.3845 20.5563 29.6286 20.4356C29.9634 20.2725 30.2806 20.3221 30.5246 20.5775C30.8194 20.8909 30.6956 21.3 30.5117 21.4904C30.3277 21.682 29.7689 21.9835 29.5366 22.1053C29.5507 22.1314 29.5637 22.1562 29.5755 22.1822C29.6109 22.2591 29.579 22.3513 29.5012 22.388H29.5024ZM29.8608 35.8449C29.83 35.8447 29.8 35.8354 29.7744 35.8181C29.7489 35.8008 29.7291 35.7762 29.7175 35.7476C29.7059 35.719 29.703 35.6876 29.7092 35.6573C29.7154 35.627 29.7304 35.5993 29.7524 35.5776C30.2476 35.0952 30.8253 34.4483 31.4643 33.656C31.4771 33.6402 31.4929 33.627 31.5107 33.6173C31.5286 33.6076 31.5482 33.6015 31.5684 33.5993C31.5886 33.5972 31.609 33.5991 31.6285 33.6048C31.6479 33.6106 31.6661 33.6202 31.6819 33.633C31.6977 33.6458 31.7108 33.6616 31.7205 33.6795C31.7302 33.6974 31.7363 33.717 31.7384 33.7373C31.7406 33.7576 31.7387 33.778 31.7329 33.7976C31.7272 33.8171 31.7176 33.8353 31.7049 33.8512C31.1638 34.5337 30.5844 35.1848 29.9693 35.8011C29.9403 35.8295 29.9013 35.8452 29.8608 35.8449Z" fill="white"/>
<path d="M30.2864 21.2749C30.3359 21.224 30.4833 20.9899 30.297 20.7912C30.1484 20.6363 29.9739 20.6103 29.7629 20.7144C29.6969 20.7475 29.6096 20.7983 29.5129 20.8586C29.7128 21.0356 29.8697 21.256 29.9716 21.5031C30.084 21.438 30.1895 21.3616 30.2864 21.2749Z" fill="white"/>
</svg>
