<svg width="24" height="21" viewBox="0 0 24 21" fill="none" xmlns="http://www.w3.org/2000/svg">
<path d="M23.6294 0.555907C23.3362 0.197387 22.8971 0 22.3929 0C22.1188 0 21.8284 0.0576781 21.5299 0.171752L1.21439 7.9268C0.136268 8.33824 -0.00893447 8.95567 0.000403878 9.28709C0.00974222 9.61851 0.189734 10.2268 1.28946 10.5767C1.29606 10.5787 1.30265 10.5807 1.30924 10.5826L5.52322 11.7885L7.80214 18.3052C8.11287 19.1936 8.81032 19.7455 9.62257 19.7455C10.1347 19.7455 10.6384 19.5309 11.0794 19.1251L13.6859 16.7252L17.4664 19.7693C17.4668 19.7697 17.4673 19.7698 17.4677 19.7702L17.5036 19.7991C17.5069 19.8017 17.5104 19.8045 17.5137 19.807C17.9339 20.1329 18.3926 20.3051 18.8406 20.3052H18.8408C19.7162 20.3052 20.4133 19.6572 20.6164 18.6546L23.945 2.21832C24.0787 1.55859 23.9667 0.968259 23.6294 0.555907ZM6.93294 11.5594L15.063 7.40605L10.0007 12.7851C9.91774 12.8732 9.85896 12.981 9.83003 13.0984L8.8539 17.0524L6.93294 11.5594ZM10.1267 18.0906C10.093 18.1215 10.0591 18.1492 10.0252 18.1746L10.9309 14.5067L12.5783 15.8333L10.1267 18.0906ZM22.5668 1.93908L19.2381 18.3755C19.2061 18.5328 19.1038 18.8988 18.8406 18.8988C18.7106 18.8988 18.5473 18.828 18.3801 18.6992L14.0962 15.2499C14.0956 15.2494 14.0949 15.2488 14.0942 15.2484L11.5452 13.1958L18.8659 5.41698C19.1003 5.16796 19.1215 4.78655 18.9163 4.51299C18.7108 4.23943 18.3386 4.15337 18.0341 4.30901L5.99343 10.4602L1.72214 9.2382L22.0314 1.48553C22.203 1.41998 22.3227 1.40625 22.3929 1.40625C22.4359 1.40625 22.5124 1.41137 22.5408 1.44635C22.5782 1.49194 22.6258 1.6474 22.5668 1.93908Z" fill="white"/>
</svg>
